<svg xmlns="http://www.w3.org/2000/svg" viewBox="0 0 25 25" id="svg10359690410"><path d="M 12.574 24.959 C 12.5 24.922 12.453 24.91 12.425 24.881 C 12.383 24.833 12.338 24.777 12.32 24.718 C 12.205 24.313 12.105 23.904 11.982 23.501 C 11.87 23.129 11.736 22.762 11.609 22.394 C 11.541 22.198 11.464 22.005 11.394 21.81 C 11.275 21.474 11.173 21.131 11.036 20.802 C 10.87 20.404 10.678 20.016 10.491 19.627 C 10.364 19.359 10.239 19.091 10.091 18.835 C 9.908 18.516 9.712 18.205 9.504 17.903 C 9.041 17.236 8.488 16.647 7.894 16.096 C 7.67 15.888 7.41 15.715 7.157 15.542 C 6.864 15.342 6.564 15.152 6.259 14.968 C 6.034 14.832 5.801 14.709 5.567 14.587 C 5.305 14.45 5.04 14.316 4.771 14.19 C 4.563 14.093 4.348 14.007 4.131 13.925 C 3.823 13.81 3.51 13.704 3.199 13.592 C 2.94 13.499 2.683 13.404 2.424 13.31 C 2.363 13.287 2.303 13.255 2.24 13.236 C 1.803 13.107 1.364 12.978 0.925 12.853 C 0.671 12.782 0.414 12.728 0.163 12.652 C 0.096 12.632 -0.009 12.545 0 12.515 C 0.024 12.433 0.085 12.347 0.155 12.295 C 0.211 12.252 0.303 12.259 0.378 12.239 C 0.769 12.132 1.161 12.027 1.551 11.913 C 1.798 11.841 2.043 11.761 2.285 11.675 C 2.598 11.563 2.908 11.44 3.218 11.322 C 3.408 11.25 3.599 11.179 3.789 11.106 C 4.085 10.991 4.383 10.879 4.675 10.757 C 4.863 10.679 5.049 10.596 5.226 10.498 C 5.731 10.22 6.238 9.943 6.734 9.648 C 7.41 9.246 8.01 8.745 8.548 8.174 C 8.963 7.734 9.361 7.279 9.665 6.751 C 9.87 6.396 10.105 6.057 10.296 5.694 C 10.505 5.297 10.68 4.882 10.865 4.473 C 10.991 4.194 11.111 3.912 11.231 3.631 C 11.268 3.545 11.294 3.455 11.326 3.367 C 11.471 2.959 11.619 2.552 11.761 2.143 C 11.794 2.05 11.806 1.95 11.835 1.857 C 11.874 1.733 11.919 1.609 11.963 1.488 C 11.97 1.468 11.988 1.45 11.993 1.429 C 12.094 1.034 12.195 0.638 12.291 0.24 C 12.318 0.132 12.319 0.005 12.465 -0.001 C 12.611 -0.007 12.669 0.092 12.703 0.225 C 12.819 0.682 12.94 1.137 13.065 1.591 C 13.125 1.807 13.19 2.021 13.268 2.231 C 13.384 2.547 13.516 2.857 13.638 3.172 C 13.738 3.432 13.825 3.698 13.931 3.955 C 14.066 4.281 14.215 4.601 14.356 4.924 C 14.453 5.144 14.533 5.372 14.646 5.582 C 14.838 5.933 15.036 6.282 15.259 6.614 C 15.521 7.006 15.79 7.398 16.099 7.754 C 16.444 8.15 16.826 8.517 17.214 8.874 C 17.471 9.112 17.753 9.33 18.046 9.521 C 18.438 9.777 18.848 10.006 19.258 10.235 C 19.56 10.404 19.871 10.558 20.184 10.709 C 20.396 10.811 20.614 10.903 20.835 10.984 C 21.331 11.167 21.831 11.34 22.33 11.516 C 22.683 11.641 23.031 11.779 23.39 11.886 C 23.832 12.017 24.282 12.127 24.731 12.239 C 24.864 12.272 24.991 12.292 25.034 12.45 C 25.06 12.549 25.035 12.612 24.934 12.638 C 24.546 12.735 24.155 12.821 23.77 12.932 C 23.411 13.035 23.061 13.164 22.707 13.284 C 22.671 13.296 22.637 13.317 22.601 13.33 C 22.04 13.52 21.476 13.7 20.92 13.903 C 20.647 14.002 20.391 14.147 20.126 14.27 C 19.912 14.369 19.691 14.456 19.485 14.568 C 19.114 14.769 18.741 14.969 18.386 15.195 C 18.015 15.432 17.65 15.68 17.309 15.955 C 16.65 16.484 16.067 17.09 15.592 17.791 C 15.297 18.226 15.009 18.667 14.737 19.117 C 14.605 19.336 14.521 19.583 14.414 19.817 C 14.29 20.086 14.165 20.353 14.04 20.621 C 14.029 20.646 14.014 20.669 14.005 20.695 C 13.89 21.02 13.781 21.347 13.661 21.67 C 13.55 21.973 13.429 22.27 13.312 22.57 C 13.305 22.59 13.295 22.611 13.289 22.632 C 13.177 23.004 13.085 23.383 12.951 23.748 C 12.825 24.091 12.719 24.433 12.689 24.797 C 12.684 24.853 12.612 24.903 12.57 24.958 Z" fill="var(--token-9373627a-1d17-498a-86bf-feaf713bab7d, rgb(102, 79, 53)) /* {&quot;name&quot;:&quot;Wood-70&quot;} */"></path></svg>