<svg xmlns="http://www.w3.org/2000/svg" data-name="Layer 1" viewBox="0 0 535.57 128.59" id="svg113691809_6569"><path d="M325.59 65.84c-.22-10.87 2.05-20.2 6.42-29.05 4.46-9.03 10.66-16.65 18.55-22.92 5.5-4.36 11.54-7.7 18.1-10.16C373.65 1.84 378.8.69 384.07.18c3.14-.3 6.32-.13 9.48-.17 3.44-.05 6.8.63 10.13 1.36 9.55 2.09 18.13 6.2 25.83 12.25 8.51 6.69 15.03 14.94 19.56 24.75a60.058 60.058 0 0 1 5.38 20.29c.2 2.45.45 4.9.43 7.35-.06 6.9-1.51 13.55-3.88 20.01-4.12 11.23-11.01 20.49-20.2 28.04-5.41 4.44-11.43 7.84-18 10.35-4.51 1.72-9.16 2.78-13.89 3.48-3.91.58-7.88.9-11.83.57-3.69-.31-7.36-.75-10.99-1.56-8.62-1.91-16.44-5.55-23.58-10.72-7-5.08-12.72-11.36-17.34-18.64-4.61-7.27-7.57-15.18-8.77-23.71-.42-2.96-.6-5.96-.8-7.99Zm8.1-2.18c.25 3.07.33 6.16.78 9.2 1.05 7.12 3.53 13.76 7.21 19.95 3.91 6.58 9.08 11.99 15.23 16.51 3.54 2.61 7.34 4.75 11.37 6.48 3.56 1.53 7.23 2.8 11.06 3.44 4.98.84 9.99 1.14 15.05.85 7.36-.42 14.29-2.39 20.81-5.68 10.33-5.21 18.56-12.75 24.28-22.88 5.37-9.51 8.08-19.66 7.2-30.65-.43-5.3-1.42-10.47-3.28-15.46-3.55-9.52-9.1-17.63-16.9-24.2-5.15-4.34-10.83-7.73-17.15-10.05-6.64-2.44-13.47-3.72-20.55-3.52-1.41.04-2.82.22-4.23.35-5.82.53-11.38 2.13-16.69 4.49-7.43 3.31-13.92 8-19.38 14.05-5.87 6.5-10.1 13.93-12.57 22.34-1.42 4.81-2.3 9.72-2.25 14.78ZM65.97 2.19c.87-.04 1.61-.1 2.36-.1 10.21 0 20.42-.09 30.62.03 6.42.07 12.81.72 19.07 2.25 9.02 2.19 16.85 6.63 23.68 12.86 8.35 7.62 14.11 16.89 17.31 27.73a64.908 64.908 0 0 1 2.64 21.23c-.38 8.83-2.4 17.28-6.35 25.25-2.78 5.61-6.34 10.63-10.61 15.2-5.49 5.88-11.9 10.4-19.29 13.53-4.62 1.96-9.48 3.11-14.44 3.83-4.71.68-9.45.84-14.21.84-9.62.01-19.25.02-28.87.02h-1.91V2.19Zm8.02 7.82c-.32 6.24-.16 105.88.18 106.99h.97c7.21 0 14.42.04 21.62-.02 3.08-.02 6.16-.16 9.23-.39 3.37-.25 6.67-.96 9.95-1.75 4.16-1 8.08-2.65 11.79-4.72 5.22-2.92 9.63-6.86 13.43-11.45 4.54-5.48 7.87-11.64 10.03-18.42 1.77-5.56 2.6-11.28 2.54-17.1-.07-6.24-1.04-12.34-3.07-18.28-2.29-6.71-5.86-12.67-10.42-18.07-3.16-3.74-7.09-6.55-11.11-9.24-4.86-3.25-10.28-5.07-15.98-6.11-4.26-.78-8.55-1.42-12.89-1.43-8.25-.03-16.5 0-24.75-.01h-1.53Zm394.37 114.78h-8.02V2.25c.41-.05.84-.15 1.28-.15 9.46-.01 18.92-.08 28.37.02 3.86.04 7.73.27 11.55 1.05 4.41.91 8.4 2.62 11.83 5.58 4.11 3.53 7.42 7.64 9.45 12.71 1.15 2.88 1.75 5.89 2.08 8.97.37 3.43.17 6.83-.48 10.2-1.96 10.09-7.37 17.62-16.77 22.07-2.56 1.21-5.19 2.25-7.99 2.81-.52.1-1.03.3-1.67.49 12.54 18.25 25.02 36.42 37.58 54.69-2.14 1.71-4.18 3.33-6.31 5.04-.35-.43-.68-.79-.95-1.19-7.1-10.38-14.18-20.78-21.28-31.16-6.07-8.87-12.16-17.72-18.23-26.59-.33-.48-.64-.79-1.28-.79-6.17.02-12.33.01-18.5.02-.2 0-.4.04-.66.07v58.68Zm.12-114.72v48.05c.4.03.73.08 1.05.08 8.66-.08 17.33.27 25.98-.23 2.67-.15 5.33-.53 7.78-1.64 5.29-2.4 9.15-6.28 11.52-11.6 1.25-2.8 1.97-5.75 2.22-8.8.47-5.77-.55-11.22-3.89-16.06-2.23-3.23-4.96-5.99-8.59-7.61-3.62-1.62-7.51-2.2-11.44-2.23-7.75-.06-15.49-.02-23.24-.02-.45 0-.9.04-1.39.06ZM167.5 1.86h57.24v8.21c-5.45.09-10.84.03-16.24.04h-32.67c-.02 15.51 0 30.9 0 46.41.6.03 1.17.09 1.74.09 14.46 0 28.91-.02 43.37-.02.86 0 1.73.07 2.63.12v8.35c-.71.04-1.36.12-2.02.12H175.9v51.56h48.84v8.21c-1.1.27-55.52.36-57.21.1-.29-.92-.33-122.04-.03-123.18Z"></path><path d="M330.11 21.88c-.73-.58-1.38-1.09-2.02-1.6-6.41-5.1-13.55-8.77-21.55-10.65-5.29-1.24-10.7-1.79-16.13-1.39-8.81.65-17.07 3.2-24.69 7.71-6.41 3.79-12 8.54-16.57 14.45-5.97 7.72-9.8 16.41-11.41 26.04-.77 4.63-.67 9.28-.19 13.95.6 5.82 2.26 11.34 4.68 16.63 2.25 4.92 5.33 9.31 8.93 13.35 5.49 6.15 12.11 10.8 19.46 14.4 5.18 2.54 10.65 4.3 16.38 5.14 7.59 1.11 15.01.36 22.3-2.03 6.1-2 11.77-4.84 17.09-8.4.17-.11.35-.21.67-.4 1.68 2.19 3.33 4.35 5.05 6.6-.45.35-.75.62-1.09.85-4.45 3.05-9.13 5.7-14.17 7.59-6.42 2.41-13.06 3.95-19.96 4.19-7 .24-13.9-.57-20.62-2.48-7.56-2.15-14.41-5.81-20.77-10.42-8.55-6.19-15.01-14.14-19.82-23.45-3.22-6.23-5.22-12.86-6.06-19.84-.46-3.82-.69-7.64-.44-11.47.72-10.85 4.03-20.85 9.92-30.02 4.72-7.36 10.64-13.58 17.81-18.53 5.39-3.72 11.15-6.78 17.49-8.68 3.56-1.07 7.14-1.97 10.8-2.52 1.19-.18 2.4-.25 3.61-.34 1.58-.11 3.16-.27 4.74-.25 2.08.02 4.16.12 6.23.31 11.96 1.13 22.66 5.46 32.2 12.73 1.38 1.05 2.72 2.16 4.19 3.33-2.06 1.76-4.04 3.46-6.07 5.2ZM38.99 8.69c-.8.08-1.65.16-2.51.27-1.82.24-3.61.57-5.24 1.5-1.71.97-2.43 2.43-2.39 4.34 0 .16.07.31.12.5h27.38c.23-2.39.19-4.7-1.08-6.85-1.05-1.79-2.54-3.08-4.44-3.87-2.16-.89-4.4-1.54-6.78-1.49-.52.01-1.05-.1-1.53-.15-.13-.52.05-.77.44-.84.24-.04.5-.04.75-.04 4.12 0 8.25.02 12.37.04.45 0 .91.07 1.52.12.1 7.55 0 15.05.06 22.55-1.09 0-1.12 0-1.14-.75-.03-.87 0-1.75 0-2.61-.94-.3-53.26-.4-55.3-.1v3.38c-1.07.16-1.13.14-1.17-.59-.04-.79-.03-1.58 0-2.37.05-1.62.28-3.26.16-4.86-.33-4.13.05-8.24.03-12.36V2.22c.56-.05.97-.12 1.38-.12 3.83-.02 7.66-.03 11.5-.04.29 0 .61-.03.86.08.21.09.33.36.7.8-1.07.09-1.84.16-2.61.21-3.02.2-5.79 1.08-8.16 3.04-1.77 1.47-2.69 3.36-2.78 5.64-.04 1.11 0 2.22 0 3.4h26.69c.14-1.3-.22-2.46-1.03-3.44-.44-.53-1.04-.97-1.64-1.31-1.65-.93-3.42-1.5-5.35-1.52-.66 0-1.33-.09-1.98-.22-.21-.04-.51-.36-.49-.53.02-.2.31-.46.53-.53.31-.1.66-.04.99-.04 6.12 0 12.24 0 18.37.01.46 0 .92.03 1.37.09.46.06.63.34.44.95Zm3.56 94.24c-.17-.53-.02-.79.39-.84.33-.04.66-.04 1-.04 4 0 8 0 12 .03.53 0 1.06.09 1.65.14v22.54c-1.03.01-1.06.01-1.09-.72-.03-.87 0-1.75 0-2.61-.9-.28-53.43-.38-55.31-.1v3.39c-1.11.09-1.14.09-1.17-.65-.03-.87 0-1.75 0-2.62.03-2.16.08-4.33.1-6.49.04-3.49.05-6.99.08-10.48 0-.69.05-1.38.08-2.19h1.39c3.54-.03 7.08-.07 10.62-.1.58 0 1.16.06 1.74.13.12.01.32.22.31.31-.03.17-.17.44-.29.46-.57.09-1.16.11-1.74.15-3.13.26-6.06 1.04-8.51 3.15-1.74 1.5-2.62 3.41-2.72 5.68-.05 1.02 0 2.05 0 3.16h26.74c0-1.89-.59-3.4-2.15-4.41-1.63-1.06-3.43-1.69-5.38-1.83-.83-.06-1.66-.12-2.49-.23-.19-.03-.36-.26-.54-.4.19-.17.36-.4.59-.49.22-.08.49-.02.74-.02 4.95 0 9.91-.01 14.86 0 1.5 0 3 .05 4.5.11.38.01.76.14 1.14.22 0 .11.01.22.02.34-.27.09-.54.23-.82.27-1.28.18-2.56.31-3.83.51-1.29.21-2.49.68-3.59 1.39-1.65 1.07-2.16 2.63-1.99 4.58h27.36c1.06-4.12-1.05-8.64-4.94-10.45-2.2-1.02-4.52-1.68-6.99-1.7-.61 0-1.21-.1-1.77-.14Zm13.96-21.9c-.09-1.5-.03-2.97-.29-4.39-.67-3.52-3.07-5.53-6.32-6.58-2.02-.65-4.07-1.21-6.24-1.11-.62.03-1.23-.04-1.58-.93.46-.09.8-.22 1.15-.22 4.67 0 9.33 0 14 .01.07 0 .15.06.31.12v23.31h-1.07v-4.15H1.12v4.1H0V77.04c.88-.19 1.02-.13 1.07.58.05.66 0 1.33 0 2v1.32c1.16.29 53.2.36 55.42.07Zm1.04-46.61v23.29h-1.08v-4.13H1.13v4.08H0V43.55c.9-.26 1.05-.19 1.08.65.04 1.08 0 2.15 0 3.42 18.44.01 36.79.01 55.13 0 .96-5.7-1.21-9.43-5.93-11.11-2.2-.79-4.47-1.31-6.83-1.35-.45 0-1.02.09-1.31-.63.29-.1.54-.25.8-.25 4.75 0 9.5 0 14.24.02.08 0 .15.05.36.12Z"></path></svg>