<svg xmlns="http://www.w3.org/2000/svg" viewBox="0 0 48 48" id="svg10780144168"><path d="M 45.059 12.409 C 45.513 13.388 45.952 14.332 46.406 15.309 C 46.205 15.4 46.046 15.48 45.881 15.545 C 41.115 17.391 36.348 19.234 31.585 21.087 C 31.358 21.175 31.26 21.13 31.177 20.916 C 31.085 20.685 30.964 20.466 30.833 20.194 C 35.566 17.604 40.285 15.022 45.06 12.408 Z M 47.594 19.519 C 47.723 20.578 47.849 21.592 47.978 22.649 C 47.674 22.678 47.419 22.71 47.161 22.725 C 43.747 22.913 40.332 23.096 36.919 23.283 C 35.592 23.356 34.264 23.423 32.939 23.51 C 32.423 23.545 32.089 23.227 31.756 22.932 C 31.552 22.75 31.664 22.516 31.964 22.459 C 32.935 22.271 33.907 22.098 34.878 21.915 C 38.996 21.135 43.113 20.353 47.231 19.573 C 47.329 19.554 47.429 19.545 47.594 19.523 Z M 47.81 27.056 C 47.624 28.011 47.446 28.924 47.266 29.838 C 47.249 29.924 47.21 30.008 47.172 30.12 C 46.481 29.932 45.806 29.745 45.13 29.567 C 41.243 28.542 37.355 27.523 33.473 26.485 C 33.241 26.423 33.02 26.251 32.842 26.08 C 32.58 25.83 32.377 25.525 31.95 25.538 C 31.709 25.545 31.661 25.355 31.687 25.151 C 31.718 24.912 31.897 24.994 32.03 25.011 C 35.374 25.443 38.718 25.879 42.063 26.311 C 43.763 26.531 45.464 26.743 47.165 26.959 C 47.356 26.984 47.545 27.017 47.81 27.058 Z M 45.712 34.255 C 45.211 35.164 44.727 36.046 44.23 36.952 C 44.115 36.896 44.035 36.866 43.962 36.819 C 40.38 34.527 36.802 32.231 33.217 29.945 C 32.832 29.7 32.5 29.439 32.38 28.968 C 32.299 28.654 32.08 28.447 31.788 28.304 C 31.454 28.139 31.13 27.952 30.779 27.762 L 31.081 27.337 C 35.956 29.642 40.801 31.933 45.712 34.255 Z M 29.697 29.354 C 33.618 33.063 37.523 36.758 41.474 40.494 C 40.732 41.192 40.009 41.876 39.254 42.589 C 38.883 42.143 38.542 41.735 38.204 41.325 C 35.956 38.593 33.715 35.855 31.458 33.131 C 31.151 32.76 30.953 32.382 30.99 31.897 C 31.016 31.565 30.875 31.32 30.637 31.095 C 30.274 30.751 29.936 30.379 29.592 30.016 C 29.28 29.686 29.284 29.667 29.697 29.352 Z M 27.267 31.069 C 27.435 30.995 27.577 30.932 27.75 30.855 C 27.886 31.106 28.015 31.342 28.143 31.579 C 30.537 35.964 32.93 40.35 35.332 44.732 C 35.474 44.99 35.464 45.12 35.18 45.249 C 34.406 45.599 33.644 45.976 32.843 46.358 C 32.749 46.155 32.666 45.997 32.6 45.831 C 31.276 42.5 29.965 39.162 28.617 35.839 C 28.402 35.308 28.321 34.829 28.57 34.317 C 28.677 34.095 28.62 33.912 28.52 33.707 C 28.103 32.846 27.7 31.981 27.266 31.066 Z M 28.435 47.647 C 27.451 47.762 26.508 47.873 25.529 47.988 C 25.504 47.828 25.477 47.709 25.469 47.59 C 25.25 44.077 25.038 40.563 24.814 37.05 C 24.798 36.782 24.83 36.557 25.035 36.372 C 25.399 36.044 25.462 35.653 25.384 35.171 C 25.22 34.172 25.111 33.162 24.993 32.156 C 24.974 31.996 24.829 31.758 25.162 31.703 C 25.473 31.653 25.481 31.873 25.519 32.074 C 26.065 34.995 26.606 37.919 27.155 40.838 C 27.566 43.021 27.987 45.201 28.403 47.382 C 28.415 47.448 28.42 47.513 28.435 47.647 Z M 20.91 47.871 C 19.928 47.677 19.019 47.498 18.1 47.316 C 18.1 47.236 18.09 47.189 18.1 47.149 C 18.904 43.97 19.714 40.793 20.509 37.611 C 20.595 37.265 20.729 36.997 21.068 36.859 C 21.451 36.703 21.61 36.418 21.679 36.005 C 21.9 34.691 22.166 33.385 22.415 32.077 C 22.439 31.956 22.469 31.836 22.501 31.69 C 22.669 31.711 22.811 31.732 22.995 31.757 C 22.301 37.12 21.608 42.467 20.909 47.871 Z M 20.19 30.851 C 20.341 30.924 20.472 30.985 20.643 31.067 C 18.337 35.955 16.038 40.826 13.709 45.761 C 12.865 45.296 12.059 44.851 11.224 44.391 C 11.309 44.231 11.358 44.119 11.423 44.015 C 12.948 41.574 14.48 39.14 15.99 36.689 C 16.237 36.287 16.515 36.022 16.994 36.014 C 17.291 36.01 17.455 35.85 17.591 35.595 C 18.357 34.173 19.137 32.759 19.913 31.342 C 19.999 31.185 20.09 31.03 20.193 30.851 Z M 7.527 41.571 C 6.83 40.825 6.205 40.156 5.491 39.393 C 5.62 39.323 5.72 39.288 5.798 39.223 C 7.812 37.538 9.833 35.862 11.83 34.157 C 12.203 33.837 12.567 33.692 13.028 33.835 C 13.305 33.921 13.485 33.82 13.685 33.63 C 15.095 32.291 16.518 30.966 17.936 29.636 C 18.034 29.544 18.135 29.454 18.229 29.368 C 18.657 29.626 18.665 29.649 18.345 29.99 C 15.952 32.532 13.556 35.07 11.163 37.612 C 10.072 38.772 8.984 39.933 7.898 41.098 C 7.775 41.229 7.675 41.383 7.529 41.571 Z M 16.901 27.294 C 16.996 27.55 17.201 27.739 16.833 27.938 C 13.279 29.868 9.734 31.811 6.185 33.75 C 5.239 34.267 4.293 34.786 3.344 35.301 C 3.207 35.375 3.063 35.435 2.868 35.528 C 2.508 34.735 2.156 33.973 1.826 33.203 C 1.803 33.149 1.927 32.972 2.017 32.934 C 2.925 32.546 3.84 32.174 4.754 31.799 C 6.067 31.262 7.385 30.736 8.692 30.181 C 9.015 30.043 9.3 30.009 9.581 30.221 C 9.948 30.498 10.282 30.427 10.675 30.236 C 12.637 29.285 14.613 28.364 16.583 27.432 C 16.675 27.39 16.767 27.352 16.9 27.294 Z M 0.374 28.464 C 0.248 27.56 0.128 26.686 0 25.759 C 0.359 25.729 0.682 25.697 1.005 25.672 C 2.975 25.521 4.946 25.366 6.918 25.231 C 7.069 25.22 7.286 25.307 7.376 25.424 C 7.728 25.879 8.137 25.986 8.708 25.905 C 11.025 25.582 13.35 25.31 15.672 25.022 C 15.839 25.001 16.008 24.99 16.166 24.975 C 16.34 25.433 16.336 25.445 15.895 25.528 C 11.228 26.403 6.56 27.277 1.894 28.153 C 1.406 28.245 0.919 28.351 0.374 28.462 Z M 0.139 20.901 C 0.308 20.016 0.466 19.184 0.633 18.312 C 1.17 18.433 1.657 18.533 2.138 18.65 C 3.584 19.002 5.026 19.368 6.473 19.711 C 6.78 19.784 6.99 19.906 7.047 20.238 C 7.115 20.625 7.334 20.79 7.747 20.866 C 10.451 21.355 13.15 21.884 15.848 22.403 C 15.978 22.427 16.14 22.453 16.215 22.539 C 16.276 22.612 16.265 22.791 16.22 22.892 C 16.196 22.947 16.027 22.966 15.93 22.954 C 13.901 22.698 11.873 22.436 9.845 22.173 C 6.747 21.772 3.649 21.37 0.551 20.968 C 0.428 20.952 0.307 20.929 0.136 20.9 Z M 17.13 20.174 C 17.05 20.341 16.983 20.481 16.902 20.65 C 12.004 18.33 7.133 16.023 2.236 13.704 C 2.669 12.914 3.075 12.17 3.498 11.396 C 4.008 11.705 4.482 11.989 4.954 12.279 C 5.952 12.89 6.945 13.511 7.95 14.113 C 8.178 14.25 8.318 14.399 8.287 14.675 C 8.23 15.169 8.463 15.442 8.898 15.676 C 11.57 17.113 14.225 18.581 16.887 20.038 C 16.957 20.077 17.025 20.115 17.129 20.174 Z M 6.48 7.483 C 6.836 7.13 7.152 6.806 7.481 6.494 C 7.76 6.229 8.052 5.979 8.362 5.701 C 8.84 6.255 9.3 6.784 9.757 7.318 C 10.238 7.878 10.706 8.451 11.198 9.002 C 11.396 9.223 11.471 9.441 11.356 9.711 C 11.165 10.163 11.329 10.482 11.654 10.824 C 13.908 13.199 16.137 15.598 18.386 17.979 C 18.648 18.255 18.515 18.401 18.251 18.619 C 14.341 14.921 10.432 11.222 6.48 7.484 Z M 12.419 2.864 C 13.144 2.523 13.827 2.194 14.52 1.887 C 14.584 1.858 14.763 1.943 14.794 2.016 C 15.259 3.092 15.719 4.17 16.147 5.261 C 16.201 5.399 16.113 5.655 16.005 5.782 C 15.676 6.169 15.768 6.507 15.967 6.924 C 17.486 10.107 18.982 13.303 20.485 16.495 C 20.678 16.905 20.674 16.907 20.193 17.102 C 17.611 12.373 15.026 7.636 12.42 2.864 Z M 21.979 0 C 22.061 1.052 22.145 2.027 22.203 3.002 C 22.21 3.111 22.081 3.281 21.972 3.335 C 21.492 3.58 21.451 3.956 21.517 4.44 C 21.814 6.641 22.083 8.845 22.362 11.048 C 22.57 12.676 22.778 14.302 22.984 15.929 C 22.995 16.016 22.985 16.105 22.985 16.189 C 22.549 16.305 22.516 16.293 22.441 15.896 C 21.675 11.835 20.913 7.772 20.148 3.71 C 19.957 2.691 19.773 1.672 19.568 0.656 C 19.516 0.398 19.589 0.313 19.84 0.283 C 20.536 0.201 21.229 0.1 21.979 -0.003 Z M 24.948 16.191 C 25.642 10.835 26.333 5.497 27.03 0.112 C 27.837 0.257 28.61 0.397 29.407 0.54 C 29.253 1.265 29.12 1.945 28.951 2.615 C 28.921 2.734 28.751 2.876 28.624 2.899 C 28.07 3.002 27.9 3.323 27.8 3.87 C 27.145 7.478 26.44 11.076 25.751 14.676 C 25.675 15.078 25.601 15.482 25.526 15.885 C 25.445 16.316 25.432 16.324 24.946 16.19 Z M 27.772 17.113 C 27.299 16.919 27.293 16.916 27.468 16.546 C 29.695 11.824 31.924 7.102 34.152 2.381 C 34.166 2.351 34.188 2.325 34.249 2.23 C 34.949 2.604 35.65 2.977 36.359 3.356 C 36.119 3.757 35.921 4.127 35.681 4.469 C 35.609 4.572 35.414 4.659 35.292 4.64 C 34.747 4.554 34.492 4.8 34.237 5.276 C 32.506 8.503 30.736 11.71 28.979 14.924 C 28.582 15.65 28.18 16.375 27.773 17.115 Z M 42.057 8.156 C 41.615 8.671 41.591 8.703 41.096 8.45 C 40.755 8.276 40.564 8.406 40.332 8.625 C 37.702 11.106 35.065 13.581 32.43 16.057 C 31.643 16.797 30.856 17.538 30.068 18.277 C 29.945 18.392 29.813 18.497 29.692 18.602 C 29.299 18.318 29.294 18.292 29.592 17.975 C 33.117 14.232 36.644 10.492 40.162 6.743 C 40.392 6.498 40.535 6.497 40.751 6.743 C 41.176 7.226 41.625 7.691 42.057 8.156 Z" fill="var(--token-28068da4-59b3-4234-aa97-0477c5e250da, rgb(170, 136, 103)) /* {&quot;name&quot;:&quot;Wood-40&quot;} */"></path></svg>