<svg xmlns="http://www.w3.org/2000/svg" viewBox="0 0 96 96" id="svg10805117925"><path d="M 90.117 24.818 C 91.025 26.776 91.904 28.663 92.812 30.619 C 92.411 30.799 92.092 30.961 91.762 31.089 C 82.23 34.782 72.695 38.468 63.169 42.174 C 62.716 42.349 62.52 42.259 62.354 41.832 C 62.171 41.37 61.928 40.933 61.666 40.388 C 71.133 35.208 80.569 30.044 90.12 24.815 Z M 95.187 39.037 C 95.446 41.157 95.697 43.184 95.956 45.298 C 95.348 45.355 94.838 45.421 94.323 45.451 C 87.494 45.826 80.665 46.192 73.838 46.567 C 71.185 46.712 68.528 46.846 65.877 47.021 C 64.846 47.089 64.178 46.455 63.513 45.864 C 63.104 45.5 63.327 45.032 63.927 44.918 C 65.869 44.543 67.814 44.196 69.755 43.829 C 77.992 42.27 86.225 40.706 94.462 39.147 C 94.658 39.108 94.857 39.089 95.187 39.045 Z M 95.621 54.113 C 95.247 56.022 94.893 57.849 94.533 59.676 C 94.497 59.848 94.421 60.015 94.345 60.239 C 92.962 59.865 91.612 59.49 90.259 59.134 C 82.486 57.083 74.711 55.045 66.946 52.97 C 66.483 52.846 66.041 52.502 65.684 52.16 C 65.16 51.659 64.754 51.05 63.9 51.077 C 63.417 51.091 63.322 50.71 63.374 50.303 C 63.436 49.824 63.794 49.988 64.061 50.021 C 70.748 50.885 77.435 51.758 84.125 52.622 C 87.526 53.063 90.927 53.486 94.331 53.919 C 94.713 53.968 95.089 54.034 95.621 54.116 Z M 91.424 68.51 C 90.423 70.329 89.455 72.093 88.459 73.904 C 88.23 73.791 88.069 73.731 87.925 73.638 C 80.76 69.054 73.604 64.462 66.434 59.889 C 65.665 59.4 64.999 58.877 64.759 57.936 C 64.598 57.307 64.159 56.894 63.575 56.607 C 62.907 56.279 62.261 55.904 61.557 55.524 L 62.163 54.674 C 71.913 59.285 81.603 63.866 91.424 68.51 Z M 59.395 58.708 C 67.235 66.125 75.046 73.515 82.947 80.987 C 81.464 82.385 80.018 83.752 78.507 85.177 C 77.765 84.286 77.084 83.471 76.407 82.65 C 71.913 77.186 67.429 71.71 62.915 66.262 C 62.302 65.521 61.906 64.763 61.98 63.795 C 62.032 63.13 61.751 62.641 61.274 62.189 C 60.548 61.503 59.872 60.759 59.185 60.031 C 58.56 59.372 58.568 59.334 59.395 58.705 Z M 54.535 62.137 C 54.87 61.99 55.154 61.864 55.5 61.711 C 55.773 62.211 56.029 62.684 56.285 63.158 C 61.075 71.929 65.861 80.7 70.664 89.463 C 70.947 89.98 70.928 90.24 70.361 90.497 C 68.812 91.197 67.287 91.952 65.686 92.715 C 65.498 92.31 65.332 91.993 65.201 91.662 C 62.553 85 59.929 78.323 57.235 71.677 C 56.804 70.616 56.643 69.659 57.139 68.633 C 57.355 68.19 57.24 67.824 57.041 67.413 C 56.206 65.693 55.399 63.962 54.532 62.132 Z M 56.869 95.294 C 54.903 95.524 53.015 95.746 51.057 95.975 C 51.008 95.655 50.954 95.417 50.937 95.179 C 50.501 88.153 50.075 81.127 49.628 74.101 C 49.595 73.564 49.661 73.113 50.07 72.744 C 50.798 72.088 50.924 71.305 50.768 70.343 C 50.441 68.343 50.223 66.325 49.985 64.312 C 49.947 63.992 49.658 63.516 50.324 63.406 C 50.945 63.305 50.962 63.746 51.038 64.148 C 52.129 69.99 53.212 75.837 54.311 81.677 C 55.132 86.042 55.975 90.401 56.806 94.764 C 56.831 94.895 56.839 95.026 56.869 95.294 Z M 41.82 95.743 C 39.856 95.355 38.037 94.996 36.199 94.632 C 36.199 94.471 36.18 94.378 36.199 94.299 C 37.808 87.94 39.428 81.586 41.018 75.222 C 41.19 74.53 41.457 73.994 42.136 73.718 C 42.903 73.406 43.219 72.837 43.358 72.011 C 43.8 69.383 44.332 66.771 44.831 64.153 C 44.877 63.912 44.937 63.672 45.003 63.379 C 45.338 63.423 45.622 63.464 45.99 63.513 C 44.602 74.24 43.216 84.934 41.817 95.743 Z M 40.38 61.703 C 40.683 61.848 40.945 61.971 41.285 62.135 C 36.674 71.91 32.075 81.652 27.417 91.523 C 25.729 90.593 24.117 89.701 22.448 88.782 C 22.617 88.462 22.715 88.238 22.846 88.03 C 25.895 83.148 28.961 78.28 31.98 73.378 C 32.474 72.574 33.03 72.044 33.987 72.027 C 34.582 72.019 34.909 71.699 35.182 71.19 C 36.715 68.346 38.275 65.518 39.826 62.684 C 39.998 62.37 40.181 62.061 40.385 61.703 Z M 15.055 83.143 C 13.661 81.649 12.409 80.312 10.983 78.786 C 11.239 78.646 11.441 78.575 11.596 78.446 C 15.625 75.077 19.666 71.724 23.659 68.313 C 24.406 67.673 25.135 67.383 26.056 67.67 C 26.61 67.843 26.97 67.64 27.371 67.26 C 30.191 64.583 33.035 61.932 35.872 59.271 C 36.068 59.088 36.27 58.907 36.458 58.735 C 37.315 59.252 37.331 59.298 36.69 59.979 C 31.904 65.064 27.112 70.14 22.325 75.225 C 20.144 77.544 17.967 79.866 15.796 82.196 C 15.551 82.459 15.349 82.765 15.057 83.143 Z M 33.802 54.589 C 33.993 55.1 34.402 55.478 33.665 55.877 C 26.558 59.736 19.467 63.623 12.371 67.501 C 10.478 68.535 8.585 69.571 6.687 70.602 C 6.415 70.75 6.125 70.87 5.735 71.056 C 5.015 69.47 4.312 67.947 3.652 66.407 C 3.605 66.297 3.854 65.945 4.034 65.868 C 5.85 65.091 7.68 64.347 9.507 63.598 C 12.134 62.523 14.771 61.473 17.384 60.362 C 18.03 60.086 18.6 60.018 19.162 60.442 C 19.895 60.997 20.564 60.855 21.349 60.472 C 25.274 58.571 29.225 56.728 33.166 54.865 C 33.349 54.78 33.535 54.704 33.799 54.589 Z M 0.747 56.927 C 0.496 55.119 0.256 53.372 0 51.517 C 0.717 51.457 1.364 51.394 2.01 51.345 C 5.951 51.041 9.892 50.732 13.835 50.462 C 14.138 50.44 14.572 50.615 14.752 50.847 C 15.455 51.758 16.274 51.971 17.416 51.81 C 22.05 51.164 26.7 50.62 31.345 50.043 C 31.677 50.002 32.015 49.98 32.332 49.95 C 32.681 50.866 32.673 50.891 31.789 51.055 C 22.456 52.805 13.121 54.553 3.788 56.306 C 2.812 56.49 1.838 56.703 0.747 56.924 Z M 0.278 41.802 C 0.616 40.033 0.933 38.367 1.265 36.625 C 2.34 36.866 3.314 37.065 4.276 37.301 C 7.167 38.003 10.053 38.736 12.946 39.423 C 13.56 39.568 13.98 39.811 14.095 40.476 C 14.231 41.25 14.667 41.581 15.494 41.731 C 20.902 42.71 26.299 43.769 31.696 44.805 C 31.955 44.855 32.28 44.907 32.43 45.079 C 32.553 45.224 32.531 45.582 32.441 45.785 C 32.392 45.894 32.054 45.932 31.86 45.908 C 27.802 45.396 23.746 44.871 19.691 44.346 C 13.495 43.545 7.298 42.741 1.102 41.936 C 0.856 41.904 0.614 41.857 0.273 41.8 Z M 34.26 40.347 C 34.099 40.681 33.965 40.963 33.805 41.299 C 24.008 36.661 14.266 32.046 4.473 27.408 C 5.337 25.827 6.15 24.339 6.995 22.791 C 8.015 23.409 8.965 23.978 9.908 24.558 C 11.905 25.781 13.89 27.022 15.9 28.226 C 16.355 28.499 16.636 28.797 16.574 29.35 C 16.459 30.337 16.925 30.884 17.795 31.352 C 23.141 34.226 28.451 37.161 33.775 40.077 C 33.914 40.153 34.05 40.23 34.257 40.347 Z M 12.96 14.966 C 13.672 14.261 14.305 13.612 14.962 12.989 C 15.521 12.458 16.105 11.958 16.724 11.402 C 17.681 12.51 18.6 13.569 19.514 14.635 C 20.476 15.757 21.412 16.903 22.396 18.005 C 22.792 18.445 22.942 18.883 22.713 19.422 C 22.331 20.327 22.658 20.964 23.307 21.648 C 27.815 26.399 32.275 31.196 36.772 35.958 C 37.295 36.51 37.031 36.803 36.502 37.238 C 28.683 29.842 20.864 22.444 12.96 14.969 Z M 24.837 5.727 C 26.288 5.046 27.655 4.387 29.04 3.774 C 29.168 3.717 29.525 3.886 29.588 4.031 C 30.518 6.184 31.437 8.339 32.294 10.522 C 32.403 10.798 32.225 11.309 32.01 11.564 C 31.353 12.338 31.535 13.013 31.934 13.848 C 34.972 20.215 37.964 26.606 40.969 32.99 C 41.356 33.811 41.348 33.813 40.385 34.204 C 35.223 24.747 30.052 15.272 24.84 5.727 Z M 43.958 0 C 44.122 2.103 44.291 4.053 44.405 6.003 C 44.419 6.222 44.163 6.561 43.945 6.671 C 42.985 7.16 42.903 7.912 43.034 8.881 C 43.628 13.281 44.165 17.69 44.725 22.096 C 45.139 25.351 45.556 28.603 45.968 31.858 C 45.99 32.033 45.971 32.211 45.971 32.377 C 45.098 32.61 45.033 32.585 44.883 31.792 C 43.35 23.669 41.825 15.543 40.295 7.42 C 39.914 5.383 39.545 3.345 39.136 1.313 C 39.033 0.796 39.177 0.626 39.679 0.566 C 41.073 0.402 42.458 0.2 43.958 -0.005 Z M 49.895 32.383 C 51.284 21.67 52.666 10.995 54.06 0.224 C 55.675 0.514 57.221 0.793 58.814 1.08 C 58.505 2.53 58.241 3.889 57.903 5.229 C 57.843 5.467 57.502 5.752 57.248 5.798 C 56.141 6.003 55.8 6.646 55.601 7.74 C 54.289 14.955 52.879 22.151 51.502 29.352 C 51.349 30.157 51.202 30.963 51.052 31.77 C 50.891 32.632 50.864 32.648 49.893 32.38 Z M 55.544 34.226 C 54.597 33.838 54.586 33.832 54.935 33.091 C 59.389 23.647 63.848 14.203 68.305 4.762 C 68.332 4.702 68.375 4.65 68.498 4.461 C 69.897 5.208 71.299 5.954 72.717 6.712 C 72.237 7.513 71.842 8.254 71.362 8.938 C 71.217 9.143 70.827 9.318 70.585 9.28 C 69.494 9.108 68.984 9.6 68.474 10.552 C 65.013 17.006 61.473 23.42 57.957 29.848 C 57.164 31.3 56.359 32.749 55.546 34.229 Z M 84.115 16.312 C 83.231 17.343 83.182 17.406 82.192 16.9 C 81.51 16.552 81.128 16.812 80.665 17.25 C 75.404 22.211 70.129 27.162 64.86 32.115 C 63.286 33.595 61.713 35.077 60.136 36.554 C 59.891 36.784 59.626 36.994 59.384 37.205 C 58.598 36.636 58.587 36.584 59.185 35.949 C 66.235 28.464 73.287 20.983 80.324 13.486 C 80.785 12.997 81.071 12.994 81.502 13.486 C 82.353 14.452 83.25 15.382 84.115 16.312 Z" fill="var(--token-388fae38-c49f-4da2-8e81-15c1f5d760be, rgb(62, 54, 46)) /* {&quot;name&quot;:&quot;Wood-90&quot;} */"></path></svg>