<svg xmlns="http://www.w3.org/2000/svg" xmlns:xlink="http://www.w3.org/1999/xlink" viewBox="0 0 150 44"><path d="M 110.963 9.593 C 111.183 9.398 111.323 9.273 111.466 9.147 C 111.317 9.025 111.17 8.904 110.987 8.754 C 111.129 8.525 112.196 8.293 110.948 8.018 C 111.08 7.913 111.138 7.866 111.198 7.818 C 111.287 7.749 111.375 7.677 111.463 7.608 C 111.384 7.532 111.315 7.424 111.22 7.385 C 110.981 7.289 110.907 7.131 111.159 7.029 C 111.784 6.778 111.489 6.663 111.114 6.528 C 111.086 6.518 111.069 6.479 111.052 6.448 C 111.043 6.435 111.047 6.414 111.047 6.396 C 111.608 6.11 111.612 6.065 111.088 5.566 C 111.754 5.475 111.765 5.176 111.256 4.729 C 111.537 4.697 111.718 4.675 111.953 4.647 C 111.907 4.439 111.869 4.261 111.819 4.025 C 112.269 4.166 112.679 4.233 112.614 3.472 C 113.047 3.899 113.399 4.079 113.537 3.184 C 113.793 3.895 114.108 4.012 114.517 3.509 C 114.595 3.745 114.603 4.01 114.726 4.086 C 114.858 4.168 115.099 4.073 115.351 4.049 C 115.097 4.56 115.144 4.877 115.817 4.69 C 115.603 5.166 115.678 5.461 116.043 5.577 C 115.756 5.859 115.306 6.162 116.164 6.401 C 115.466 6.678 115.612 6.927 116.082 7.142 C 115.773 7.464 115.759 7.742 116.041 7.974 C 115.547 8.304 115.552 8.371 116.131 8.757 C 115.976 8.891 115.832 9.019 115.685 9.147 C 115.806 9.275 115.929 9.403 116.086 9.569 C 116.009 9.615 115.879 9.647 115.83 9.73 C 115.763 9.845 115.716 10.107 115.733 10.113 C 116.31 10.339 116.42 11.03 116.909 11.314 C 117.183 11.473 117.53 11.516 117.851 11.574 C 118.394 11.674 118.942 11.793 119.489 11.804 C 119.759 11.811 120.099 11.659 120.289 11.464 C 120.651 11.093 120.929 10.64 121.241 10.222 C 121.284 10.166 121.328 10.083 121.386 10.066 C 122.116 9.838 121.95 9.233 121.953 8.705 C 121.957 7.675 121.972 6.646 121.94 5.616 C 121.933 5.408 121.748 5.202 121.638 5 C 121.511 4.762 121.375 4.53 121.205 4.227 C 120.856 4.257 120.692 3.995 120.586 3.576 C 120.39 2.796 120.127 2.031 119.888 1.261 C 119.756 0.839 119.815 0.559 120.343 0.57 C 120.478 0.572 120.614 0.509 120.759 0.475 C 120.856 0.804 120.944 1.11 121.037 1.428 L 121.556 1.428 C 121.815 1.795 121.461 2.722 122.466 2.493 L 122.466 1.983 C 122.466 1.858 122.414 1.662 122.474 1.615 C 123.026 1.179 122.677 0.561 122.817 -0.004 L 124.358 -0.004 C 124.319 0.316 124.244 0.6 124.263 0.876 C 124.276 1.066 124.44 1.242 124.498 1.435 C 124.55 1.61 124.547 1.801 124.571 1.985 C 124.599 2.211 124.45 2.532 124.871 2.545 C 125.205 2.555 125.369 2.397 125.373 2.059 C 125.377 1.699 125.386 1.35 125.927 1.431 C 125.987 1.439 126.155 1.095 126.175 0.902 C 126.239 0.282 126.634 0.572 126.925 0.607 C 127.241 0.644 127.325 0.782 127.209 1.127 C 126.937 1.923 126.722 2.738 126.5 3.55 C 126.388 3.956 126.25 4.298 125.849 4.218 C 125.655 4.528 125.487 4.775 125.345 5.033 C 125.263 5.182 125.17 5.352 125.168 5.514 C 125.155 6.815 125.151 8.115 125.175 9.416 C 125.177 9.576 125.336 9.754 125.461 9.89 C 125.797 10.259 126.22 10.564 126.487 10.974 C 127.013 11.787 127.338 11.975 128.28 11.789 C 128.804 11.685 129.366 11.676 129.845 11.468 C 130.248 11.293 130.556 10.898 130.899 10.59 C 131.047 10.456 131.259 10.317 131.293 10.15 C 131.332 9.964 131.2 9.741 131.123 9.463 C 131.442 9.29 131.655 9.019 130.914 8.77 C 131.369 8.51 131.67 8.269 130.987 7.981 C 131.522 7.708 131.455 7.443 130.978 7.198 C 131.284 6.947 131.711 6.711 130.901 6.398 C 131.235 6.316 131.455 6.262 131.677 6.208 L 131.455 5.926 C 131.321 5.833 131.185 5.737 130.97 5.586 C 131.599 5.464 131.774 5.202 131.222 4.71 C 131.75 4.697 132.129 4.617 131.711 3.947 C 132.287 4.229 132.578 4.131 132.539 3.496 C 132.937 3.728 133.343 4.146 133.526 3.297 C 133.789 3.728 134.028 4.175 134.494 3.401 C 134.517 4.047 134.711 4.337 135.377 3.93 C 135.013 4.595 135.114 4.892 135.994 4.641 L 135.916 4.94 C 135.675 4.99 135.433 5.039 135.192 5.087 L 135.403 5.388 L 136.039 5.536 C 135.694 5.919 135.682 6.208 136.002 6.403 C 135.695 6.63 135.701 6.89 136.022 7.185 C 135.687 7.473 135.684 7.731 136.013 7.959 C 135.414 8.349 135.414 8.367 136.058 8.724 C 135.892 8.872 135.737 9.01 135.582 9.149 C 135.728 9.27 135.875 9.394 136.075 9.559 C 135.961 9.617 135.86 9.656 135.776 9.719 C 135.7 9.775 135.597 9.853 135.591 9.929 C 135.584 10.007 135.675 10.161 135.733 10.166 C 136.136 10.196 136.045 10.491 136.045 10.727 C 136.05 12.983 136.041 15.242 136.058 17.498 C 136.058 17.734 136.226 17.968 136.306 18.207 C 136.373 18.408 136.459 18.612 136.472 18.82 C 136.562 20.22 137.849 21.376 139.216 21.261 C 140.179 21.181 141.114 20.218 141.209 19.091 C 141.31 17.89 141.31 16.681 141.384 15.478 C 141.476 13.952 141.53 12.42 141.739 10.911 C 141.832 10.248 142.198 9.591 142.56 9.008 C 142.897 8.466 143.506 8.325 144.136 8.414 C 144.588 8.479 144.881 8.891 144.834 9.353 C 144.787 9.814 144.416 10.137 143.959 10.14 C 143.636 10.14 143.181 10.048 143.022 10.22 C 142.752 10.512 142.603 10.965 142.522 11.375 C 142.058 13.692 142.261 16.044 142.172 18.382 C 142.114 19.921 141.629 21.285 140.052 21.961 C 139.228 22.314 138.422 22.264 137.601 21.963 C 137.239 21.831 136.86 21.755 136.351 21.616 L 136.351 26.149 C 136.815 26.19 137.312 26.586 137.966 26.322 C 138.437 26.131 138.825 26.543 138.784 27.072 C 138.711 28.039 138.655 29.01 138.586 29.976 C 138.554 30.442 138.532 30.913 138.461 31.374 C 138.364 32.022 137.569 32.406 136.94 32.079 C 136.638 31.921 136.455 31.892 136.297 32.226 C 136.057 31.849 135.695 31.83 135.211 32.168 C 135.138 32.012 135.067 31.862 134.972 31.658 C 134.817 31.83 134.679 31.979 134.522 32.153 C 134.17 31.804 134.259 31.515 134.552 31.188 C 135 30.683 135.466 30.338 136.211 30.451 C 136.446 30.486 136.925 30.204 136.961 30.002 C 137.069 29.439 137.17 28.819 136.69 28.316 C 136.386 27.997 136.056 28.084 135.698 28.167 C 135.317 28.255 134.927 28.342 134.539 28.355 C 133.847 28.377 133.513 27.989 133.45 27.3 C 133.409 26.862 133.216 26.441 133.159 26.003 C 133.065 25.258 133.022 24.503 132.968 23.751 C 132.948 23.487 132.966 23.218 132.966 22.997 C 132.149 22.917 131.388 22.843 130.571 22.763 C 130.571 23.35 130.562 23.942 130.573 24.532 C 130.58 24.963 130.483 25.095 129.974 25.043 C 128.914 24.933 127.838 24.978 126.769 24.941 C 126.269 24.924 125.772 24.861 125.198 24.813 C 125.194 24.881 125.168 25.067 125.168 25.253 C 125.164 26.103 125.164 26.951 125.168 27.8 C 125.168 28.203 125.093 28.609 125.543 28.899 C 125.69 28.992 125.655 29.367 125.718 29.682 C 125.78 29.695 125.953 29.725 126.155 29.764 L 126.155 32.179 L 122.304 32.179 C 121.325 32.179 120.836 31.694 120.836 30.726 L 120.836 29.786 C 121.056 29.74 121.244 29.703 121.463 29.658 C 121.295 29.242 121.291 28.884 121.767 28.667 C 121.864 28.622 121.95 28.435 121.953 28.312 C 121.961 27.12 121.95 25.93 121.942 24.738 C 121.942 24.712 121.903 24.683 121.849 24.614 C 121.131 25.212 120.308 24.898 119.5 24.894 C 118.679 24.889 117.851 24.93 117.041 25.05 C 116.552 25.121 116.47 24.948 116.474 24.549 C 116.481 23.957 116.474 23.363 116.474 22.772 C 115.672 22.847 114.909 22.919 114.084 22.997 C 114.084 23.441 114.127 23.944 114.073 24.436 C 114 25.128 113.858 25.81 113.741 26.495 C 113.696 26.758 113.614 27.018 113.597 27.28 C 113.547 28.065 113.155 28.435 112.377 28.357 C 112.024 28.323 111.675 28.236 111.332 28.14 C 110.72 27.974 110.362 28.065 110.168 28.659 C 109.787 29.829 109.976 30.609 111.259 30.438 C 111.728 30.375 112.677 31.112 112.748 31.574 C 112.776 31.758 112.692 31.96 112.636 32.276 C 112.399 31.986 112.261 31.819 112.082 31.6 C 111.989 31.836 111.929 31.994 111.849 32.198 C 111.593 31.988 111.369 31.806 111.099 31.582 C 111 31.81 110.933 31.968 110.845 32.17 C 110.703 32.074 110.567 31.983 110.433 31.892 C 109.399 32.504 108.623 32.109 108.558 30.921 C 108.526 30.297 108.575 29.669 108.539 29.044 C 108.504 28.455 108.433 27.863 108.332 27.28 C 108.19 26.472 108.528 26.209 109.315 26.357 C 109.784 26.446 110.306 26.257 110.761 26.198 C 110.72 25.37 110.67 24.638 110.651 23.907 C 110.634 23.175 110.647 22.44 110.647 21.619 C 110.024 21.794 109.478 21.935 108.937 22.102 C 107.418 22.566 105.634 21.556 105.187 19.95 C 105.002 19.282 104.888 18.575 104.862 17.884 C 104.808 16.44 104.888 14.993 104.806 13.551 C 104.752 12.591 104.558 11.631 104.345 10.69 C 104.2 10.051 103.963 9.968 103.315 10.094 C 102.754 10.202 102.308 9.91 102.252 9.396 C 102.185 8.789 102.494 8.438 103.093 8.397 C 103.795 8.347 104.297 8.655 104.677 9.22 C 105.192 9.988 105.435 10.863 105.483 11.761 C 105.588 13.759 105.599 15.762 105.685 17.76 C 105.722 18.599 105.789 19.442 106.263 20.194 C 107.084 21.493 108.761 21.677 109.776 20.53 C 110.218 20.032 110.621 19.492 110.562 18.753 C 110.554 18.636 110.584 18.471 110.662 18.4 C 111.093 17.999 110.987 17.485 110.989 16.995 C 110.991 14.899 110.989 12.806 110.991 10.71 C 110.991 10.469 110.914 10.176 111.321 10.168 C 111.373 10.168 111.463 10.012 111.459 9.931 C 111.455 9.856 111.364 9.769 111.289 9.717 C 111.2 9.658 111.091 9.632 110.968 9.582 Z M 114.384 19.856 C 114.897 19.748 115.328 19.635 115.765 19.57 C 116.985 19.39 118.55 20.132 118.289 21.733 C 118.237 22.052 118.291 22.386 118.237 22.704 C 118.172 23.079 118.349 23.305 118.659 23.313 C 119.144 23.327 119.668 23.333 120.106 23.164 C 120.547 22.993 120.813 22.585 120.623 22.013 C 120.569 21.853 120.651 21.564 120.776 21.441 C 121.034 21.179 121.377 21.003 121.659 20.76 C 121.789 20.65 121.942 20.468 121.942 20.316 C 121.961 18.53 121.961 16.744 121.942 14.96 C 121.942 14.806 121.789 14.637 121.668 14.507 C 121.468 14.29 121.198 14.132 121.028 13.898 C 120.614 13.332 120.3 13.198 119.657 13.326 C 119.241 13.408 118.806 13.399 118.388 13.48 C 117.784 13.594 117.177 13.714 116.593 13.898 C 116.086 14.058 115.879 14.453 115.819 15.008 C 115.741 15.725 115.401 16.375 114.856 16.85 C 114.213 17.409 114.159 17.476 114.369 18.309 C 114.399 18.428 114.381 18.56 114.381 18.686 L 114.381 19.859 Z M 132.586 19.713 C 132.586 19.763 132.586 19.815 132.584 19.865 C 132.599 19.833 132.625 19.802 132.629 19.77 C 132.726 19.128 132.463 18.432 132.918 17.836 C 132.961 17.78 132.886 17.585 132.812 17.5 C 132.61 17.264 132.366 17.062 132.164 16.826 C 131.7 16.284 131.256 15.699 131.213 14.971 C 131.181 14.435 130.957 14.084 130.524 13.928 C 129.931 13.716 129.304 13.597 128.683 13.477 C 128.25 13.393 127.802 13.371 127.362 13.321 C 126.968 13.278 126.582 13.235 126.267 13.581 C 125.948 13.93 125.593 14.245 125.272 14.589 C 125.198 14.67 125.166 14.815 125.166 14.932 C 125.159 16.735 125.157 18.539 125.175 20.342 C 125.175 20.485 125.291 20.663 125.407 20.765 C 125.687 21.009 126.03 21.187 126.282 21.454 C 126.412 21.59 126.498 21.902 126.433 22.065 C 126.272 22.466 126.433 22.73 126.679 22.982 C 127.114 23.428 128.103 23.561 128.619 23.216 C 128.744 23.134 128.834 22.908 128.834 22.748 C 128.834 22.282 128.756 21.818 128.754 21.352 C 128.75 20.517 129.461 19.692 130.291 19.65 C 131.054 19.611 131.823 19.689 132.591 19.715 Z M 134.733 5.287 C 134.515 4.617 133.998 4.287 133.323 4.344 C 132.772 4.389 132.36 4.753 132.269 5.293 C 132.483 5.31 132.694 5.326 132.959 5.347 C 132.955 5.742 133.106 6.062 133.55 5.935 C 133.756 5.874 133.914 5.633 134.093 5.473 C 134.062 5.432 134.032 5.391 134.004 5.349 C 134.233 5.33 134.461 5.31 134.733 5.289 Z M 113.013 5.349 C 112.985 5.395 112.957 5.44 112.931 5.486 C 113.134 5.64 113.315 5.865 113.543 5.937 C 114.024 6.084 114.045 5.642 114.129 5.349 C 114.384 5.321 114.601 5.297 114.836 5.273 C 114.565 4.589 114.112 4.302 113.44 4.344 C 112.905 4.376 112.466 4.738 112.334 5.28 C 112.563 5.304 112.787 5.328 113.011 5.352 Z M 112.968 6.253 C 112.696 6.758 112.681 7.43 112.948 7.495 C 113.334 7.588 113.787 7.614 114.159 7.502 C 114.481 7.406 114.435 6.782 114.112 6.264 C 113.754 6.663 113.369 6.654 112.968 6.253 Z M 113.534 9.292 C 113.746 9.173 113.985 9.11 114.095 8.956 C 114.241 8.75 114.31 8.475 114.347 8.219 C 114.353 8.176 114.034 8.052 113.858 8.024 C 113.631 7.987 113.39 8.039 113.166 8 C 112.871 7.95 112.808 8.076 112.759 8.338 C 112.629 9.019 113.287 8.986 113.534 9.292 Z M 132.892 6.251 C 132.668 6.73 132.487 7.237 132.94 7.502 C 133.231 7.673 133.819 7.649 134.093 7.454 C 134.444 7.203 134.297 6.7 134.144 6.255 C 133.884 6.403 133.688 6.513 133.485 6.63 C 133.302 6.513 133.125 6.401 132.892 6.251 Z M 133.502 9.296 C 133.649 9.201 133.784 9.069 133.944 9.017 C 134.392 8.869 134.28 8.503 134.231 8.215 C 134.216 8.124 133.89 8.067 133.7 8.031 C 133.545 8 133.377 8.002 133.222 8.028 C 133.037 8.059 132.856 8.13 132.675 8.184 C 132.756 8.442 132.793 8.728 132.935 8.945 C 133.039 9.103 133.284 9.168 133.502 9.296 Z M 114.705 6.648 L 114.937 6.689 L 115.032 5.748 C 114.282 6.013 114.914 6.403 114.705 6.648 Z M 12.362 17.394 C 12.968 17.828 13.502 18.155 13.976 18.556 C 15.642 19.963 16.72 21.805 17.733 23.701 C 18.832 25.758 19.806 27.896 21.274 29.736 C 21.95 30.583 22.662 31.398 23.731 31.762 C 23.981 31.847 24.246 31.884 24.504 31.942 C 24.502 32.003 24.5 32.061 24.496 32.122 C 24.338 32.144 24.181 32.185 24.024 32.185 C 22.586 32.189 21.151 32.205 19.713 32.172 C 19.476 32.166 19.177 31.994 19.022 31.806 C 17.185 29.549 15.916 26.935 14.5 24.415 C 13.565 22.75 12.634 21.09 11.256 19.741 C 9.946 18.46 8.381 17.758 6.543 17.706 C 6.455 17.704 6.364 17.711 6.274 17.719 C 6.239 17.724 6.207 17.743 6.112 17.782 C 6.101 17.942 6.08 18.133 6.08 18.322 C 6.08 21.898 6.075 25.474 6.08 29.051 C 6.08 30.622 7.119 31.726 8.685 31.849 C 8.832 31.86 8.974 31.936 9.119 31.983 C 9.108 32.033 9.099 32.081 9.088 32.131 L 0 32.131 C 0.196 31.983 0.282 31.864 0.377 31.858 C 2.47 31.689 3.144 30.31 3.149 28.446 C 3.164 21.53 3.159 14.611 3.149 7.695 C 3.149 7.051 3.11 6.39 2.968 5.763 C 2.703 4.584 1.83 3.919 0.573 3.791 C 0.412 3.774 0.259 3.648 0.103 3.572 C 0.259 3.503 0.414 3.373 0.569 3.373 C 3.873 3.362 7.179 3.299 10.481 3.386 C 12.802 3.446 14.985 4.049 16.601 5.915 C 17.569 7.031 18.071 8.347 18.246 9.821 C 18.442 11.481 18.142 13.009 17.218 14.394 C 16.222 15.886 14.787 16.742 13.086 17.193 C 12.881 17.247 12.677 17.305 12.362 17.39 Z M 6.084 10.616 C 6.084 12.582 6.086 14.548 6.082 16.514 C 6.082 16.815 6.095 17.026 6.498 17.023 C 8.056 17.013 9.608 16.971 11.123 16.551 C 12.75 16.098 13.994 15.17 14.599 13.549 C 15.121 12.151 15.106 10.697 14.823 9.247 C 14.42 7.185 13.304 5.687 11.379 4.801 C 9.804 4.075 8.142 4.151 6.481 4.203 C 6.112 4.214 6.08 4.472 6.082 4.773 C 6.088 6.721 6.086 8.67 6.086 10.616 Z M 43.987 3.429 C 44.149 3.407 44.31 3.368 44.472 3.368 C 47.578 3.364 50.687 3.282 53.789 3.392 C 56.487 3.487 58.864 4.45 60.483 6.778 C 62.401 9.535 61.86 13.768 58.595 15.729 C 57.67 16.284 56.659 16.694 55.67 17.177 C 56.334 17.288 57.028 17.401 57.72 17.52 C 60.759 18.044 62.994 19.661 63.873 22.67 C 64.985 26.48 63.039 30.128 59.364 31.5 C 57.808 32.081 56.159 32.2 54.504 32.194 C 51.22 32.183 47.933 32.192 44.647 32.187 C 44.448 32.187 44.25 32.159 44.052 32.146 C 44.05 32.087 44.045 32.031 44.043 31.973 C 44.235 31.936 44.427 31.873 44.621 31.862 C 45.961 31.788 46.817 30.653 46.963 29.447 C 47.03 28.895 47.026 28.331 47.026 27.772 C 47.03 21.181 47.034 14.592 47.019 8 C 47.019 7.213 46.983 6.409 46.81 5.646 C 46.528 4.402 45.647 3.756 44.375 3.689 C 44.246 3.683 44.116 3.644 43.989 3.622 C 43.989 3.559 43.985 3.494 43.983 3.431 Z M 50.002 23.476 L 50.03 23.476 L 50.03 28.836 C 50.03 29.981 50.922 30.774 51.845 31.038 C 53.127 31.407 54.414 31.437 55.722 31.197 C 57.218 30.924 58.537 30.321 59.444 29.062 C 60.724 27.287 61.127 25.299 60.744 23.129 C 60.513 21.82 59.959 20.697 58.994 19.813 C 57.524 18.467 55.707 17.964 53.774 17.858 C 52.7 17.799 51.619 17.864 50.543 17.836 C 50.123 17.825 49.985 17.947 49.991 18.38 C 50.013 20.077 50 21.775 50 23.472 Z M 50.002 10.811 C 50.002 12.686 50.013 14.563 49.994 16.438 C 49.989 16.885 50.127 17.054 50.58 17.021 C 51.381 16.965 52.188 16.917 52.991 16.919 C 54.938 16.926 56.319 15.957 57.315 14.375 C 58.244 12.901 58.481 11.286 58.168 9.563 C 57.853 7.829 57.091 6.381 55.679 5.308 C 54.069 4.088 52.276 4.084 50.422 4.543 C 50.101 4.623 49.994 4.838 49.996 5.18 C 50.011 7.055 50.004 8.932 50.002 10.807 Z M 76.907 3.364 L 78.379 3.364 C 79.332 3.364 80.282 3.381 81.235 3.355 C 81.631 3.344 81.834 3.448 81.974 3.858 C 83.168 7.313 84.39 10.755 85.601 14.204 C 86.819 17.669 88.022 21.14 89.252 24.599 C 89.847 26.27 90.442 27.943 91.123 29.578 C 91.55 30.605 92.198 31.5 93.392 31.769 C 93.644 31.825 93.903 31.858 94.159 31.903 C 94.168 31.949 94.177 31.994 94.183 32.04 C 94.063 32.083 93.942 32.166 93.821 32.166 C 90.931 32.172 88.039 32.172 85.149 32.166 C 85.034 32.166 84.92 32.105 84.804 32.072 L 84.817 31.899 C 84.994 31.882 85.168 31.864 85.345 31.845 C 85.804 31.797 86.28 31.806 86.72 31.687 C 87.582 31.452 88.045 30.611 87.806 29.742 C 87.513 28.674 87.211 27.605 86.849 26.556 C 85.912 23.829 84.938 21.113 83.985 18.391 C 83.858 18.025 83.664 17.856 83.246 17.86 C 81.037 17.882 78.83 17.88 76.621 17.86 C 76.248 17.858 76.052 17.992 75.946 18.324 C 74.873 21.666 73.782 25.002 72.737 28.353 C 72.565 28.908 72.539 29.521 72.528 30.111 C 72.509 31.101 73.216 31.799 74.205 31.845 C 74.388 31.853 74.571 31.864 74.756 31.873 L 74.789 32.018 C 74.7 32.068 74.616 32.153 74.524 32.163 C 73.149 32.322 68.093 32.187 67.774 31.944 C 68.013 31.879 68.205 31.827 68.394 31.775 C 69.767 31.403 70.575 30.401 71.047 29.151 C 71.75 27.295 72.364 25.403 72.994 23.519 C 74.377 19.362 75.746 15.201 77.123 11.041 C 77.776 9.071 78.44 7.105 79.075 5.13 C 79.129 4.964 79.058 4.697 78.948 4.55 C 78.578 4.062 78.075 3.769 77.461 3.676 C 77.265 3.646 77.078 3.57 76.886 3.516 L 76.905 3.364 Z M 79.884 6.782 C 79.825 6.782 79.765 6.784 79.707 6.786 C 78.631 10.107 77.556 13.425 76.463 16.805 L 83.409 16.805 C 82.216 13.412 81.05 10.098 79.884 6.782 Z M 37.534 32.142 L 28.707 32.142 C 28.694 32.098 28.681 32.053 28.67 32.009 C 28.813 31.955 28.953 31.864 29.099 31.853 C 30.61 31.739 31.631 30.523 31.629 29.033 C 31.619 21.54 31.625 14.05 31.625 6.557 C 31.625 4.938 30.672 3.873 29.078 3.698 C 28.931 3.683 28.784 3.652 28.584 3.62 C 28.959 3.292 37.239 3.273 37.692 3.607 C 37.388 3.661 37.157 3.691 36.933 3.745 C 35.149 4.175 34.58 5.217 34.569 7.101 C 34.534 13.148 34.556 19.195 34.556 25.245 C 34.556 26.346 34.506 27.449 34.567 28.548 C 34.655 30.154 35.063 31.229 36.675 31.752 C 36.841 31.806 37.024 31.808 37.196 31.851 C 37.33 31.884 37.457 31.938 37.586 31.983 C 37.571 32.038 37.554 32.092 37.539 32.144 Z M 80.504 38.497 C 81.612 39.208 81.877 39.745 81.619 40.664 C 81.412 41.393 80.832 41.856 79.92 41.913 C 79.063 41.965 78.198 41.952 77.338 41.921 C 77.207 41.917 76.974 41.674 76.974 41.54 C 76.953 39.554 76.953 37.569 76.978 35.586 C 76.978 35.462 77.231 35.239 77.371 35.235 C 78.213 35.211 79.058 35.213 79.899 35.252 C 80.744 35.291 81.323 35.766 81.509 36.52 C 81.662 37.142 81.463 38.011 80.692 38.332 C 80.634 38.356 80.593 38.419 80.504 38.499 Z M 77.813 40.023 C 77.813 40.294 77.776 40.571 77.828 40.831 C 77.858 40.983 78.028 41.223 78.136 41.223 C 78.741 41.226 79.358 41.226 79.95 41.115 C 80.534 41.007 80.808 40.567 80.784 40.023 C 80.761 39.448 80.433 39.06 79.838 38.958 C 79.541 38.909 79.233 38.909 78.931 38.909 C 77.599 38.913 77.841 38.787 77.815 40.02 Z M 77.817 37.06 C 77.817 37.311 77.782 37.569 77.83 37.812 C 77.856 37.948 78.017 38.167 78.112 38.165 C 78.733 38.148 79.364 38.137 79.968 38.009 C 80.42 37.914 80.651 37.532 80.644 37.032 C 80.64 36.533 80.407 36.197 79.953 36.06 C 79.631 35.965 79.287 35.92 78.95 35.917 C 77.627 35.915 77.828 35.759 77.817 37.058 Z M 3.409 38.798 C 4.789 39.609 4.437 39.585 4.968 42.004 C 4.216 42.236 4.11 42.181 3.946 41.427 C 3.851 40.987 3.778 40.543 3.687 40.103 C 3.586 39.604 3.269 39.288 2.784 39.227 C 2.272 39.162 1.746 39.153 1.231 39.186 C 1.116 39.193 0.937 39.472 0.931 39.633 C 0.901 40.421 0.916 41.213 0.916 41.986 C 0.149 42.225 0.034 42.149 0.034 41.442 C 0.034 39.548 0.052 37.656 0.024 35.761 C 0.015 35.224 0.196 35.066 0.703 35.105 C 1.61 35.174 2.532 35.124 3.427 35.267 C 4.315 35.41 4.754 36.024 4.815 36.882 C 4.875 37.758 4.558 38.26 3.703 38.644 C 3.625 38.679 3.552 38.724 3.407 38.798 Z M 0.918 37.142 C 0.918 37.448 0.877 37.762 0.935 38.057 C 0.966 38.208 1.159 38.438 1.289 38.443 C 1.804 38.464 2.328 38.451 2.838 38.38 C 3.519 38.282 3.884 37.762 3.86 37.025 C 3.841 36.401 3.448 35.982 2.782 35.894 C 2.588 35.868 2.39 35.87 2.192 35.87 C 1.343 35.864 0.918 36.288 0.918 37.142 Z M 112.407 41.856 C 111.588 42.047 111.481 41.993 111.207 41.275 C 110.876 40.41 110.252 39.977 109.334 39.977 L 108.474 39.977 C 107.619 39.977 107.569 40.014 107.295 40.827 C 107.233 41.013 107.172 41.202 107.097 41.384 C 106.838 42.002 106.737 42.045 105.994 41.835 C 106.319 41.018 106.638 40.203 106.968 39.392 C 107.491 38.111 108.039 36.839 108.541 35.549 C 108.69 35.167 108.966 35.17 109.233 35.228 C 109.455 35.276 109.765 35.406 109.841 35.584 C 110.705 37.599 111.534 39.63 112.371 41.659 C 112.39 41.707 112.392 41.761 112.409 41.854 Z M 109.248 36.273 L 109.103 36.273 C 108.759 37.151 108.405 38.031 108.084 38.922 C 108.058 38.995 108.244 39.242 108.338 39.249 C 108.909 39.281 109.485 39.279 110.058 39.253 C 110.147 39.249 110.319 39.023 110.295 38.958 C 109.961 38.057 109.601 37.168 109.246 36.275 Z M 62.295 40.643 C 61.976 41.666 61.321 42.173 60.295 42.244 C 59.17 42.322 58.218 41.837 57.817 40.981 C 57.22 39.702 57.563 37.964 58.578 37.309 C 59.416 36.767 60.328 36.737 61.185 37.218 C 62.039 37.697 62.244 38.573 62.317 39.483 C 62.347 39.856 62.071 39.815 61.843 39.815 C 60.875 39.817 59.907 39.812 58.938 39.817 C 58.403 39.819 58.351 39.914 58.515 40.432 C 58.722 41.093 59.196 41.423 59.843 41.538 C 60.457 41.646 60.94 41.425 61.261 40.892 C 61.522 40.454 61.886 40.604 62.295 40.647 Z M 59.961 39.167 L 60.817 39.167 C 61.409 39.164 61.541 38.952 61.289 38.408 C 61.039 37.873 60.334 37.493 59.733 37.571 C 59.162 37.645 58.631 38.172 58.5 38.768 C 58.433 39.071 58.58 39.164 58.836 39.167 C 59.211 39.171 59.586 39.167 59.961 39.169 Z M 20.037 41.518 C 19.871 41.65 19.752 41.744 19.634 41.839 C 18.739 42.552 17.101 42.214 16.72 41.239 C 16.392 40.404 16.75 39.604 17.614 39.364 C 18.198 39.201 18.808 39.143 19.405 39.021 C 19.601 38.982 19.927 38.922 19.948 38.82 C 19.998 38.579 19.968 38.267 19.847 38.057 C 19.597 37.621 19.151 37.521 18.675 37.573 C 18.233 37.621 17.922 37.844 17.724 38.258 C 17.655 38.404 17.474 38.557 17.321 38.586 C 16.894 38.666 16.739 38.486 16.925 38.083 C 17.067 37.771 17.282 37.428 17.56 37.257 C 18.308 36.793 19.136 36.797 19.937 37.123 C 20.457 37.333 20.767 37.771 20.802 38.334 C 20.869 39.485 20.903 40.638 20.931 41.791 C 20.933 41.887 20.787 42.064 20.709 42.064 C 20.534 42.064 20.341 42.008 20.187 41.917 C 20.11 41.872 20.103 41.705 20.039 41.516 Z M 19.476 39.598 C 18.994 39.721 18.498 39.808 18.032 39.979 C 17.677 40.112 17.397 40.439 17.547 40.827 C 17.655 41.1 17.94 41.403 18.213 41.494 C 19.11 41.798 19.961 41.141 20.013 40.194 C 20.034 39.795 19.963 39.541 19.476 39.598 Z M 136.953 40.575 C 136.709 40.95 136.563 41.286 136.323 41.531 C 135.31 42.561 133.213 42.184 132.586 40.883 C 132.078 39.825 132.233 38.408 132.942 37.632 C 133.58 36.936 134.746 36.717 135.619 37.131 C 136.375 37.491 136.991 38.618 136.849 39.472 C 136.828 39.596 136.563 39.76 136.407 39.767 C 135.494 39.795 134.578 39.776 133.664 39.78 C 133.119 39.782 133.032 39.923 133.241 40.432 C 133.483 41.02 133.929 41.349 134.543 41.423 C 135.101 41.49 135.58 41.314 135.869 40.799 C 136.101 40.382 136.427 40.443 136.95 40.578 Z M 134.606 39.108 C 134.963 39.108 135.323 39.112 135.681 39.108 C 135.989 39.101 136.088 38.95 136.002 38.646 C 135.819 38.009 135.228 37.573 134.545 37.589 C 133.927 37.604 133.399 38.05 133.231 38.681 C 133.155 38.967 133.254 39.099 133.532 39.106 C 133.89 39.114 134.248 39.106 134.608 39.108 Z M 10.647 39.554 C 10.657 40.573 10.377 41.471 9.422 41.965 C 8.573 42.405 7.679 42.392 6.858 41.867 C 5.817 41.202 5.459 39.492 6.054 38.208 C 6.534 37.17 7.741 36.68 8.985 37.016 C 10.05 37.305 10.64 38.208 10.647 39.557 Z M 6.675 39.607 C 6.696 39.793 6.705 40.066 6.761 40.328 C 6.899 40.983 7.44 41.494 8.03 41.557 C 8.67 41.624 9.269 41.297 9.552 40.675 C 9.897 39.914 9.892 39.132 9.515 38.386 C 9.063 37.493 8.004 37.305 7.248 37.959 C 6.769 38.373 6.696 38.939 6.677 39.607 Z M 122.769 37.597 C 123.265 37.09 123.853 36.895 124.537 37.016 C 125.239 37.142 125.782 37.645 125.819 38.352 C 125.875 39.433 125.866 40.517 125.847 41.598 C 125.847 41.713 125.58 41.917 125.444 41.911 C 125.313 41.904 125.088 41.685 125.082 41.551 C 125.05 40.686 125.069 39.819 125.065 38.952 C 125.058 38.111 124.716 37.686 124.03 37.647 C 123.317 37.608 122.744 38.065 122.688 38.833 C 122.625 39.695 122.653 40.565 122.642 41.429 C 122.64 41.683 122.677 41.943 122.282 41.947 C 121.907 41.952 121.836 41.767 121.838 41.445 C 121.847 39.531 121.847 37.617 121.838 35.703 C 121.838 35.365 121.933 35.207 122.291 35.204 C 122.692 35.204 122.644 35.471 122.647 35.722 L 122.647 37.534 C 122.69 37.554 122.733 37.573 122.774 37.593 Z M 65.373 39.528 C 65.321 38.525 65.657 37.673 66.586 37.201 C 67.474 36.75 68.392 36.771 69.244 37.352 C 70.097 37.935 70.459 39.342 70.086 40.541 C 69.845 41.338 69.215 41.957 68.417 42.181 C 67.618 42.405 66.761 42.203 66.144 41.646 C 65.519 41.091 65.338 40.35 65.375 39.526 Z M 69.325 39.602 C 69.325 39.459 69.341 39.312 69.323 39.171 C 69.2 38.206 68.494 37.519 67.685 37.569 C 66.864 37.621 66.276 38.336 66.22 39.342 C 66.155 40.523 66.675 41.406 67.513 41.54 C 68.55 41.705 69.345 40.861 69.323 39.6 Z M 34.746 40.578 C 35.295 40.4 35.582 40.413 35.782 40.896 C 36.088 41.633 37.336 41.817 37.914 41.256 C 38.237 40.942 38.233 40.45 37.83 40.259 C 37.384 40.047 36.89 39.923 36.405 39.819 C 35.293 39.58 34.769 38.93 34.989 37.992 C 35.017 37.87 35.052 37.738 35.123 37.643 C 35.655 36.934 36.42 36.867 37.209 36.932 C 37.903 36.988 38.524 37.218 38.776 37.953 C 38.838 38.135 38.832 38.51 38.75 38.544 C 38.498 38.653 38.226 38.666 38.052 38.295 C 37.728 37.604 36.922 37.339 36.28 37.71 C 36.078 37.827 35.847 38.107 35.847 38.31 C 35.847 38.51 36.088 38.802 36.293 38.889 C 36.767 39.086 37.284 39.184 37.784 39.323 C 38.619 39.552 39.047 40.027 39.043 40.718 C 39.041 41.432 38.593 41.956 37.756 42.151 C 36.866 42.359 35.983 42.335 35.295 41.644 C 35.034 41.382 34.933 40.961 34.744 40.58 Z M 99.802 37.606 C 100.022 37.459 100.177 37.35 100.334 37.248 C 101.235 36.663 102.927 37.016 102.955 38.471 C 102.974 39.498 103 40.528 102.983 41.555 C 102.983 41.685 102.761 41.885 102.61 41.926 C 102.343 41.997 102.175 41.843 102.177 41.536 C 102.183 40.686 102.187 39.838 102.179 38.989 C 102.17 38.07 101.858 37.68 101.129 37.654 C 100.364 37.625 99.851 38.122 99.819 38.98 C 99.789 39.791 99.8 40.606 99.806 41.416 C 99.806 41.715 99.789 41.945 99.39 41.947 C 99.015 41.947 98.998 41.731 98.998 41.455 C 98.998 39.524 99 37.591 98.998 35.66 C 98.998 35.393 99.034 35.204 99.371 35.207 C 99.692 35.209 99.821 35.33 99.81 35.66 C 99.793 36.279 99.806 36.901 99.806 37.604 Z M 147.996 42.155 C 146.927 42.095 146.25 41.713 146.006 40.942 C 145.957 40.786 146.009 40.463 146.101 40.424 C 146.336 40.324 146.593 40.3 146.752 40.662 C 147.065 41.375 147.769 41.659 148.489 41.334 C 148.75 41.217 149.093 40.851 149.069 40.634 C 149.043 40.393 148.679 40.112 148.399 39.99 C 147.978 39.808 147.5 39.763 147.054 39.635 C 146.364 39.437 145.998 38.956 146.013 38.306 C 146.028 37.688 146.409 37.233 147.075 37.045 C 147.776 36.847 148.481 36.847 149.099 37.248 C 149.377 37.428 149.578 37.762 149.748 38.063 C 149.812 38.176 149.692 38.395 149.655 38.564 C 149.442 38.486 149.131 38.473 149.034 38.321 C 148.625 37.68 148.034 37.398 147.375 37.69 C 147.164 37.786 146.929 38.042 146.892 38.254 C 146.864 38.423 147.082 38.724 147.265 38.82 C 147.591 38.991 147.974 39.049 148.332 39.156 C 148.554 39.221 148.782 39.275 149 39.359 C 149.67 39.624 149.944 39.988 149.948 40.586 C 149.953 41.217 149.625 41.705 148.985 41.934 C 148.67 42.047 148.325 42.084 147.996 42.155 Z M 95.94 42.108 C 94.793 42.103 94.071 41.683 93.849 40.905 C 93.806 40.751 93.89 40.56 93.914 40.387 C 94.142 40.463 94.483 40.471 94.582 40.63 C 95.032 41.358 95.692 41.668 96.409 41.323 C 96.64 41.213 96.935 40.877 96.912 40.682 C 96.881 40.432 96.597 40.131 96.347 40.014 C 95.948 39.83 95.485 39.793 95.056 39.667 C 94.25 39.431 93.845 38.948 93.871 38.287 C 93.897 37.621 94.338 37.179 95.166 36.99 C 96.276 36.737 97.306 37.159 97.608 38.024 C 97.662 38.176 97.563 38.382 97.534 38.562 C 97.325 38.486 97.024 38.471 96.922 38.319 C 96.5 37.684 95.918 37.413 95.248 37.697 C 95.037 37.786 94.802 38.042 94.765 38.254 C 94.735 38.423 94.946 38.74 95.125 38.822 C 95.526 39.002 95.974 39.088 96.405 39.193 C 97.591 39.479 98.147 40.363 97.659 41.26 C 97.278 41.965 96.586 42.097 95.942 42.11 Z M 16.011 37.118 C 15.817 37.625 15.644 38.094 15.463 38.555 C 14.899 39.994 14.349 41.44 13.752 42.864 C 13.405 43.692 12.866 43.991 12.004 43.902 C 11.849 43.887 11.625 43.712 11.584 43.569 C 11.5 43.276 11.733 43.246 11.978 43.231 C 12.961 43.168 13.345 42.522 12.981 41.618 C 12.422 40.233 11.881 38.841 11.336 37.452 C 11.3 37.357 11.293 37.25 11.272 37.151 C 11.996 36.947 12.136 37.021 12.353 37.684 C 12.709 38.759 13.067 39.834 13.429 40.907 C 13.461 41 13.532 41.078 13.616 41.21 C 13.709 41.098 13.797 41.035 13.828 40.948 C 14.213 39.845 14.584 38.735 14.97 37.632 C 15.192 36.999 15.203 37.001 16.013 37.12 Z M 30.513 37.417 C 31.009 36.953 31.705 36.841 32.463 37.042 C 33.071 37.205 33.522 37.576 33.562 38.221 C 33.64 39.407 33.653 40.599 33.655 41.787 C 33.655 41.891 33.388 42.049 33.224 42.088 C 32.957 42.149 32.791 42.03 32.795 41.705 C 32.81 40.857 32.828 40.007 32.791 39.16 C 32.774 38.779 32.709 38.354 32.517 38.037 C 32.25 37.597 31.772 37.517 31.274 37.675 C 30.7 37.857 30.349 38.265 30.332 38.857 C 30.308 39.721 30.319 40.588 30.317 41.455 L 30.317 41.982 C 29.597 42.227 29.483 42.155 29.483 41.475 C 29.483 40.211 29.47 38.948 29.494 37.684 C 29.498 37.474 29.644 37.266 29.726 37.058 C 29.948 37.159 30.168 37.259 30.511 37.415 Z M 52.114 41.767 C 51.672 42.197 50.983 42.318 50.22 42.123 C 49.532 41.947 49.093 41.449 49.078 40.742 C 49.054 39.661 49.063 38.577 49.052 37.495 C 49.05 37.231 49.086 37.045 49.427 37.047 C 49.744 37.047 49.879 37.142 49.873 37.48 C 49.858 38.365 49.862 39.249 49.873 40.131 C 49.881 41.037 50.256 41.503 50.961 41.512 C 51.78 41.523 52.317 40.985 52.33 40.114 C 52.343 39.249 52.347 38.382 52.33 37.517 C 52.323 37.166 52.442 37.042 52.795 37.045 C 53.168 37.047 53.185 37.253 53.183 37.532 C 53.177 38.831 53.192 40.131 53.172 41.429 C 53.17 41.646 53.039 41.861 52.968 42.077 C 52.724 41.989 52.478 41.9 52.114 41.767 Z M 120.845 40.378 C 120.735 40.953 120.522 41.427 120.043 41.741 C 118.621 42.676 116.981 41.926 116.58 40.133 C 116.358 39.138 116.556 38.206 117.308 37.493 C 117.927 36.908 118.703 36.795 119.522 37.029 C 120.075 37.185 120.481 37.521 120.681 38.065 C 120.744 38.234 120.744 38.594 120.696 38.607 C 120.409 38.692 120.123 38.729 119.912 38.373 C 119.748 38.1 119.504 37.807 119.226 37.69 C 118.519 37.393 117.86 37.747 117.556 38.523 C 117.272 39.247 117.302 39.979 117.64 40.675 C 117.877 41.167 118.297 41.447 118.851 41.429 C 119.362 41.414 119.728 41.152 119.909 40.656 C 120.088 40.164 120.45 40.311 120.849 40.376 Z M 141.931 40.404 C 141.776 41.436 141.119 42.036 140.119 42.097 C 139.002 42.162 138.106 41.579 137.83 40.612 C 137.623 39.884 137.582 39.153 137.832 38.43 C 138.123 37.586 138.726 37.09 139.593 36.956 C 140.407 36.83 141.125 37.04 141.644 37.732 C 141.728 37.844 141.813 37.979 141.834 38.113 C 141.862 38.28 141.825 38.456 141.817 38.629 C 141.588 38.581 141.263 38.612 141.144 38.471 C 140.44 37.617 140.147 37.45 139.498 37.677 C 138.858 37.903 138.416 38.655 138.526 39.548 C 138.586 40.044 138.735 40.597 139.026 40.985 C 139.58 41.72 140.595 41.551 141.022 40.736 C 141.276 40.25 141.306 40.239 141.927 40.404 Z M 71.657 39.906 C 71.657 39.346 71.642 38.787 71.664 38.228 C 71.677 37.87 71.58 37.697 71.187 37.686 C 71.039 37.682 70.892 37.489 70.746 37.38 C 70.89 37.272 71.037 37.071 71.181 37.071 C 71.61 37.071 71.672 36.852 71.69 36.49 C 71.737 35.471 72.065 35.096 72.944 35.001 C 73.216 34.972 73.502 34.951 73.556 35.341 C 73.61 35.729 73.358 35.716 73.088 35.74 C 72.631 35.783 72.263 36.574 72.552 36.921 C 72.647 37.034 72.914 36.986 73.084 37.055 C 73.254 37.125 73.511 37.224 73.539 37.35 C 73.606 37.673 73.336 37.727 73.084 37.695 C 72.593 37.632 72.47 37.862 72.481 38.319 C 72.506 39.418 72.481 40.519 72.496 41.62 C 72.5 41.954 72.42 42.112 72.05 42.108 C 71.687 42.106 71.642 41.926 71.649 41.633 C 71.659 41.057 71.653 40.48 71.653 39.901 L 71.659 39.901 Z M 46.112 39.515 C 46.112 39.082 46.099 38.648 46.116 38.217 C 46.131 37.853 46 37.699 45.621 37.686 C 45.468 37.682 45.321 37.493 45.17 37.387 C 45.312 37.276 45.453 37.073 45.595 37.073 C 46.011 37.073 46.138 36.878 46.11 36.503 C 46.103 36.414 46.11 36.323 46.103 36.232 C 46.088 35.922 46.213 35.764 46.543 35.768 C 46.851 35.772 46.935 35.926 46.953 36.206 C 46.998 36.984 47.006 36.971 47.737 37.064 C 47.866 37.081 47.978 37.248 48.097 37.346 C 47.976 37.465 47.869 37.669 47.735 37.688 C 46.95 37.801 46.948 37.786 46.948 38.605 C 46.948 39.327 46.957 40.049 46.948 40.768 C 46.944 41.241 47.179 41.44 47.634 41.488 C 47.797 41.505 47.944 41.668 48.099 41.763 C 47.948 41.9 47.817 42.125 47.647 42.16 C 46.772 42.34 46.209 41.917 46.134 41.024 C 46.091 40.523 46.125 40.016 46.125 39.511 L 46.112 39.511 Z M 40.537 39.626 C 40.537 39.158 40.526 38.687 40.541 38.219 C 40.552 37.875 40.468 37.658 40.063 37.701 C 39.821 37.727 39.534 37.699 39.606 37.361 C 39.634 37.233 39.901 37.066 40.054 37.073 C 40.502 37.088 40.547 36.849 40.545 36.496 C 40.545 36.273 40.554 36.004 40.675 35.842 C 40.746 35.744 41.056 35.761 41.224 35.824 C 41.315 35.857 41.364 36.091 41.373 36.238 C 41.414 37.008 41.407 36.993 42.138 37.066 C 42.291 37.081 42.427 37.246 42.571 37.344 C 42.431 37.465 42.3 37.673 42.147 37.69 C 41.369 37.784 41.369 37.766 41.371 38.568 C 41.371 39.273 41.366 39.975 41.371 40.679 C 41.377 41.28 41.541 41.429 42.127 41.494 C 42.28 41.512 42.418 41.661 42.565 41.75 C 42.438 41.887 42.332 42.11 42.179 42.149 C 41.216 42.4 40.543 41.865 40.539 40.872 C 40.537 40.458 40.539 40.042 40.539 39.628 Z M 143.269 39.522 C 143.269 39.088 143.259 38.655 143.274 38.224 C 143.284 37.87 143.179 37.69 142.784 37.699 C 142.649 37.701 142.511 37.519 142.373 37.42 C 142.496 37.302 142.625 37.081 142.741 37.09 C 143.254 37.125 143.308 36.843 143.267 36.448 C 143.235 36.13 143.261 35.876 143.696 35.889 C 144.112 35.902 144.114 36.169 144.075 36.444 C 144 36.956 144.205 37.136 144.698 37.075 C 144.925 37.047 145.198 37.023 145.207 37.38 C 145.218 37.784 144.914 37.736 144.675 37.71 C 144.196 37.658 144.043 37.851 144.065 38.326 C 144.099 39.082 144.065 39.841 144.075 40.597 C 144.084 41.182 144.25 41.325 144.81 41.358 C 144.946 41.364 145.073 41.494 145.205 41.568 C 145.099 41.726 145.024 41.982 144.881 42.028 C 144.078 42.283 143.343 41.772 143.284 40.931 C 143.252 40.465 143.278 39.994 143.278 39.524 L 143.267 39.524 Z M 54.892 39.661 C 54.892 39.173 54.881 38.687 54.897 38.2 C 54.905 37.875 54.815 37.706 54.448 37.686 C 54.274 37.677 53.994 37.517 53.963 37.38 C 53.886 37.036 54.187 37.036 54.422 37.058 C 54.821 37.09 54.929 36.884 54.897 36.533 C 54.888 36.444 54.897 36.353 54.89 36.262 C 54.875 35.978 54.92 35.77 55.284 35.768 C 55.629 35.766 55.703 35.935 55.711 36.236 C 55.735 36.995 55.746 36.98 56.472 37.068 C 56.61 37.086 56.726 37.274 56.851 37.383 C 56.722 37.489 56.601 37.673 56.463 37.688 C 55.703 37.773 55.703 37.758 55.7 38.538 C 55.7 39.223 55.694 39.908 55.7 40.593 C 55.707 41.252 55.862 41.401 56.5 41.494 C 56.627 41.512 56.83 41.681 56.828 41.772 C 56.823 41.9 56.681 42.093 56.556 42.136 C 55.677 42.442 54.927 41.902 54.897 40.957 C 54.884 40.526 54.894 40.092 54.894 39.659 L 54.89 39.659 Z M 131.56 41.362 C 131.726 41.9 131.649 42.03 131.142 42.067 C 130.267 42.129 129.769 41.709 129.739 40.825 C 129.711 39.994 129.72 39.164 129.733 38.334 C 129.739 37.933 129.681 37.66 129.181 37.699 C 129.073 37.708 128.95 37.508 128.836 37.404 C 128.944 37.294 129.062 37.077 129.159 37.088 C 129.737 37.144 129.784 36.81 129.722 36.381 C 129.657 35.93 129.918 35.816 130.261 35.922 C 130.388 35.961 130.526 36.238 130.515 36.399 C 130.481 36.899 130.619 37.153 131.166 37.075 C 131.397 37.042 131.653 37.036 131.653 37.398 C 131.653 37.771 131.379 37.74 131.159 37.712 C 130.653 37.645 130.491 37.851 130.519 38.349 C 130.556 38.978 130.528 39.613 130.53 40.244 C 130.53 41.286 130.543 41.299 131.558 41.364 Z M 88.108 37.09 C 88.224 37.081 88.332 37.058 88.435 37.071 C 88.834 37.116 88.922 36.921 88.907 36.559 C 88.899 36.351 88.937 36.047 89.073 35.943 C 89.375 35.712 89.748 35.959 89.72 36.366 C 89.685 36.882 89.81 37.157 90.394 37.084 C 90.515 37.068 90.662 37.272 90.795 37.374 C 90.655 37.489 90.504 37.71 90.377 37.697 C 89.832 37.638 89.692 37.866 89.718 38.378 C 89.756 39.134 89.737 39.893 89.737 40.649 C 89.737 41.104 89.918 41.351 90.412 41.351 C 90.541 41.351 90.668 41.544 90.795 41.648 C 90.681 41.783 90.586 42.01 90.45 42.038 C 89.621 42.207 88.927 41.7 88.94 41.013 C 88.957 40.077 88.905 39.14 88.905 38.204 C 88.905 37.877 88.845 37.677 88.463 37.714 C 87.931 37.764 87.972 37.461 88.103 37.094 Z M 23.162 38.627 C 23.162 39.62 23.149 40.614 23.168 41.607 C 23.175 41.934 23.127 42.116 22.744 42.112 C 22.399 42.11 22.28 42.006 22.284 41.642 C 22.3 39.637 22.293 37.632 22.284 35.627 C 22.284 35.319 22.315 35.107 22.707 35.102 C 23.119 35.098 23.172 35.308 23.168 35.649 C 23.155 36.641 23.164 37.636 23.164 38.629 L 23.162 38.629 Z M 27.864 38.674 C 27.864 39.648 27.851 40.623 27.871 41.596 C 27.877 41.963 27.767 42.112 27.384 42.11 C 27.004 42.108 26.95 41.928 26.95 41.605 C 26.959 39.604 26.959 37.602 26.95 35.601 C 26.95 35.267 27.039 35.107 27.403 35.105 C 27.765 35.102 27.869 35.259 27.866 35.592 C 27.856 36.62 27.862 37.647 27.862 38.677 L 27.866 38.677 Z M 85.662 37.513 C 85.123 37.68 84.647 37.721 84.31 37.961 C 84.043 38.152 83.834 38.57 83.795 38.911 C 83.7 39.75 83.713 40.601 83.696 41.449 C 83.69 41.728 83.672 41.945 83.304 41.945 C 82.948 41.945 82.897 41.752 82.899 41.46 C 82.907 40.213 82.899 38.969 82.907 37.723 C 82.907 37.459 82.791 37.055 83.244 37.088 C 83.435 37.101 83.612 37.363 83.875 37.578 C 84.259 37.229 84.802 36.784 85.537 37.077 C 85.636 37.116 85.636 37.411 85.662 37.513 Z M 114.073 37.547 C 114.599 37.352 115.091 37.146 115.599 36.999 C 115.713 36.967 115.97 37.097 116.013 37.209 C 116.114 37.472 116.073 37.68 115.675 37.673 C 114.728 37.658 114.267 38.029 114.162 38.974 C 114.071 39.776 114.101 40.591 114.082 41.399 C 114.075 41.672 114.119 41.952 113.696 41.952 C 113.284 41.952 113.297 41.689 113.297 41.408 C 113.297 40.2 113.289 38.993 113.306 37.788 C 113.31 37.537 113.138 37.175 113.569 37.075 C 114.056 36.96 114.028 37.372 114.071 37.55 Z M 44.349 39.574 C 44.349 40.278 44.338 40.981 44.353 41.685 C 44.36 41.989 44.254 42.106 43.953 42.108 C 43.644 42.108 43.498 42.021 43.5 41.676 C 43.513 40.287 43.509 38.898 43.504 37.511 C 43.504 37.209 43.584 37.042 43.929 37.045 C 44.276 37.047 44.353 37.22 44.351 37.519 C 44.343 38.204 44.349 38.889 44.349 39.576 Z M 86.414 39.502 C 86.414 38.835 86.422 38.169 86.409 37.502 C 86.403 37.188 86.5 37.049 86.838 37.051 C 87.175 37.051 87.216 37.224 87.216 37.493 C 87.211 38.826 87.207 40.159 87.218 41.492 C 87.22 41.809 87.129 41.95 86.791 41.945 C 86.461 41.941 86.409 41.774 86.412 41.501 C 86.42 40.833 86.414 40.168 86.412 39.5 Z M 127.261 39.5 C 127.261 38.833 127.265 38.165 127.261 37.495 C 127.259 37.229 127.3 37.047 127.638 37.049 C 127.97 37.051 128.075 37.192 128.073 37.508 C 128.065 38.826 128.069 40.144 128.073 41.462 C 128.073 41.754 128.006 41.939 127.655 41.945 C 127.276 41.952 127.265 41.72 127.265 41.449 C 127.267 40.799 127.265 40.148 127.265 39.498 L 127.261 39.498 Z M 92.556 39.518 C 92.556 40.185 92.547 40.853 92.56 41.518 C 92.567 41.807 92.483 41.952 92.168 41.945 C 91.86 41.941 91.767 41.8 91.767 41.512 C 91.774 40.177 91.776 38.844 91.767 37.508 C 91.767 37.196 91.86 37.047 92.198 37.051 C 92.545 37.055 92.558 37.263 92.558 37.515 C 92.556 38.182 92.558 38.85 92.558 39.515 Z M 44.345 35.66 C 44.384 35.985 44.22 36.082 43.903 36.089 C 43.485 36.097 43.509 35.833 43.509 35.551 C 43.509 35.239 43.627 35.1 43.957 35.105 C 44.369 35.109 44.364 35.363 44.345 35.662 Z M 86.78 35.224 C 87.179 35.172 87.216 35.391 87.22 35.679 C 87.224 35.978 87.157 36.154 86.81 36.149 C 86.461 36.147 86.403 35.965 86.412 35.67 C 86.42 35.389 86.433 35.144 86.78 35.224 Z M 92.638 35.82 C 92.485 35.928 92.345 36.102 92.179 36.132 C 91.851 36.191 91.761 35.974 91.763 35.666 C 91.763 35.354 91.851 35.204 92.192 35.204 C 92.578 35.204 92.58 35.436 92.64 35.82 Z M 127.851 35.263 C 127.877 35.313 128.019 35.475 128.058 35.662 C 128.119 35.943 128.011 36.136 127.666 36.147 C 127.315 36.158 127.25 35.987 127.259 35.683 C 127.267 35.41 127.246 35.152 127.851 35.261 Z" fill="rgb(0,0,0)"></path></svg>