<svg xmlns="http://www.w3.org/2000/svg" width="122" height="79" id="svg1207781799_550"><path d="M0 79h13.05v-.579H7.014c.486-1.252 9.057-24.81 9.057-24.81h24.787s8.475 23.32 9.01 24.81h-8.084v.576h21.624L34.913 0 6.383 78.421H0V79Zm16.216-25.967L28.44 19.461l12.223 33.575H16.216v-.003ZM63.455 79H82.42C104.302 79 122 66.235 122 40.37c0-25.53-16.922-38.774-39.825-38.774H55.382v.574h8.073V79Zm12.496-.528V2.215h4.861c5.74 0 10.506.339 14.054 2.02 9.628 4.508 12.935 16.171 12.935 36.135 0 18.956-4.812 30.184-12.69 35.269-3.648 2.257-8.704 2.833-13.18 2.833h-5.98Z"></path></svg>