<svg xmlns="http://www.w3.org/2000/svg" data-name="Layer 1" viewBox="0 0 416.86 166.09" id="svg-303523587_8987"><path d="M66.12 79.21c-3.52 0-6.66.12-9.78-.1-.63-.04-1.45-1.24-1.73-2.07-5.58-16.3-11.09-32.63-16.62-48.95-1.57-4.63-3.15-9.26-4.73-13.89-.23-.02-.46-.05-.68-.07L13.7 69.8c1.14.08 1.99.19 2.85.19 7.25.01 14.49.07 21.74-.03 1.98-.03 2.78.44 2.77 2.61-.05 6.67.04 6.68-6.67 6.68H0c.87-2.54 1.58-4.72 2.35-6.87C10.46 49.55 18.61 26.74 26.67 3.9c.69-1.96 1.6-2.87 3.75-2.67 2.79.26 6.26-.65 8.22.7 1.85 1.28 2.19 4.82 3.1 7.4 7.94 22.62 15.85 45.25 23.77 67.88.16.46.29.94.61 2Zm100.11-47.72c2.88-3.81 6.52-6.44 11.19-7.48 4.49-.99 8.97-.91 13.32.55 6.08 2.05 9.12 6.73 10.28 12.75.49 2.52.71 5.12.73 7.69.08 10.49-.02 20.99.09 31.48.02 2.24-.71 3-2.87 2.78-1.4-.14-2.84-.13-4.24 0-2.02.19-2.56-.67-2.54-2.6.08-9.24.05-18.49.02-27.74 0-2.08-.03-4.18-.29-6.23-1.09-8.76-6.52-12.39-15.75-10.36-6.59 1.45-10.53 7.48-10.6 15.42-.07 9.41-.02 18.82-.02 28.24q0 3.24-3.32 3.25-6.15.01-6.15-6.15V4.63q0-3.35 3.21-3.37 6.25-.03 6.25 6.33v23.63c.22.09.45.18.67.27Zm206.45 31.65c1.83 1.3 3.39 2.55 5.08 3.57 1.63.99 1.41 1.91.37 3.18-7.07 8.65-16.29 11.89-27.12 10.36-11.16-1.58-18.36-8.64-20.64-20.15-1.98-10.02-1.14-19.72 5.69-27.9s15.89-10.31 25.98-7.96c9.5 2.22 14.43 9.03 16.57 18.08.68 2.89.72 5.93 1.14 8.89.34 2.37-.68 2.95-2.93 2.93-11.57-.1-23.15-.05-34.72-.04-3.07 0-3.26.22-2.65 3.33 1.4 7.16 4.92 12.62 12.46 14.31 7.65 1.72 14.15-.44 19.15-6.64.47-.58.94-1.15 1.61-1.98Zm-32.81-16.91h29.68c.33-8.45-5.75-14.97-13.82-15.07-8.71-.11-15.95 6.66-15.86 15.07ZM127.3 164.45c1.48-3.96 2.75-7.45 4.07-10.92 7.4-19.46 14.84-38.9 22.16-58.38.83-2.22 1.9-3.1 4.33-3.04 2.34.06 3.69.49 4.62 2.97 8.24 22.16 16.65 44.26 25.01 66.39.29.76.51 1.55.95 2.88-2.35 0-4.38.16-6.35-.1-.6-.08-1.23-1.23-1.53-2.01-2.14-5.6-4.26-11.21-6.25-16.86-.67-1.91-1.6-2.76-3.77-2.73-8.58.13-17.16.11-25.74.01-1.91-.02-2.85.65-3.46 2.41-1.87 5.43-3.98 10.78-5.74 16.25-.76 2.38-1.89 3.5-4.42 3.14-1.11-.16-2.26-.03-3.88-.03Zm43.54-28.15c-4.37-11.54-8.61-22.71-13.12-34.62-4.51 11.93-8.75 23.12-13.1 34.62h26.22ZM61.48 164.42c-2.33 0-4.17.19-5.94-.09-.73-.12-1.58-1.12-1.89-1.92-2.23-5.74-4.4-11.51-6.45-17.32-.63-1.79-1.56-2.44-3.46-2.42-8.66.09-17.32.09-25.98 0-1.94-.02-2.81.7-3.41 2.46-1.86 5.44-3.97 10.78-5.75 16.24-.77 2.36-1.92 3.5-4.45 3.09-1.1-.18-2.24-.14-3.73-.21.71-1.97 1.26-3.6 1.87-5.2 8.11-21.32 16.28-42.62 24.27-63.98.99-2.66 2.54-2.87 4.89-2.96 2.42-.09 3.31.99 4.07 3.03 8.26 22.07 16.61 44.1 24.92 66.15.32.84.57 1.7 1.04 3.12Zm-30.45-61.98h-.59c-4.23 11.18-8.45 22.37-12.73 33.69.78.21 1.09.37 1.4.37 7.57.02 15.13.02 22.7.03 2.08 0 1.77-1.08 1.24-2.46-2.69-6.98-5.33-13.98-7.98-20.98-1.35-3.55-2.69-7.1-4.04-10.66Zm202.34 51.58c1.15-4.05 2.31-8.1 3.44-12.15 2.4-8.58 4.78-17.17 7.18-25.75.53-1.9 4.6-3.28 6.08-1.99.34.29.38 1.22.22 1.76-4.58 15.49-9.25 30.96-13.77 46.47-.67 2.32-2.16 2.05-3.82 2.12-1.73.07-2.91-.16-3.49-2.22-3.46-12.26-7.07-24.48-10.64-36.72-.2-.69-.45-1.37-.85-2.6-.49 1.01-.84 1.52-1 2.08-3.64 12.39-7.3 24.77-10.84 37.18-.52 1.84-1.46 2.44-3.21 2.27-1.63-.16-3.43.56-4.2-1.96-4.78-15.61-9.68-31.18-14.54-46.76-.14-.45-.18-.93-.33-1.79 2.01 0 3.81-.14 5.57.08.55.07 1.21 1.07 1.42 1.76 3.63 11.95 7.2 23.92 10.79 35.89.23.77.48 1.53.91 2.88.47-1.06.74-1.51.89-2.01 3.61-12.05 7.24-24.09 10.76-36.16.57-1.96 1.49-2.61 3.51-2.59 2.09.02 3.29.4 3.96 2.7 3.45 11.92 7.09 23.78 10.67 35.67.18.61.4 1.22.61 1.82.23 0 .46.01.69.02Zm81.06-121.37h-3.3c-7.58 0-15.16-.06-22.74.04-2.1.03-2.99-.44-2.91-2.75.21-6.1-.73-5.32 5.32-5.34 10.83-.04 21.66.06 32.49-.06 2.44-.03 3.29.56 3.36 3.17.08 3.14-.91 5.5-2.85 7.9-8.96 11.07-17.77 22.26-26.63 33.41-.4.51-.74 1.06-1.44 2.07 1.34.09 2.26.21 3.18.21 8.41.01 16.83.07 25.24-.03 2.12-.03 2.93.48 2.88 2.76-.13 5.2 0 5.21-5.13 5.21h-34.49c-3.35 0-3.15-.03-3.42-3.24-.27-3.16.86-5.52 2.77-7.92 8.72-10.94 17.3-22 25.92-33.02.45-.58.86-1.19 1.74-2.42ZM150.45 66.59c-3.28 6.76-8.3 11.05-15.25 13-5.58 1.56-11.21 1.43-16.77-.28-5.76-1.77-10.36-5.2-13.02-10.6-5.6-11.37-5.68-22.94.72-33.96 4.94-8.52 13.11-11.7 22.72-11.3 8.91.37 15.77 4.19 20.1 12.23 1.05 1.96.74 2.99-1.27 3.8-1.69.68-3.44 2.41-4.88 2.14-1.24-.23-2.09-2.62-3.09-4.07-5.79-8.36-18.8-8.35-24.59.02-5.06 7.31-5.18 20.91-.25 28.34 6.02 9.07 20.27 9.05 26.43-.03.6-.89 1.16-1.81 1.92-3 2.39 1.23 4.71 2.41 7.23 3.71Zm215.17 54.21v-2.33c0-7.92.06-15.83-.05-23.75-.03-2.26 1-2.65 2.89-2.55 1.76.09 3.46-.32 3.45 2.51-.08 22.5-.07 44.99 0 67.49 0 2.56-1.48 2.28-3.09 2.29-1.69 0-3.49.3-3.24-2.4.14-1.54.03-3.1.03-4.98-.63.35-.98.43-1.13.65-4.66 6.85-11.36 9.22-19.16 7.88-8.07-1.38-13.41-6.45-15.74-14.35-2.76-9.34-2.7-18.64 1.65-27.53 5.4-11.04 19.92-14.53 29.38-7.2 1.68 1.3 3.25 2.76 5.01 4.27Zm-31.71 18.15c.83 4.16 1.22 7.93 2.37 11.44 2.1 6.39 7.06 9.78 13.55 9.9 6.53.12 11.52-3.06 13.93-9.38 3-7.86 2.94-15.87-.15-23.68-2.26-5.71-6.64-8.87-12.9-8.99-6.49-.12-11.45 2.69-13.84 8.73-1.54 3.87-2.05 8.15-2.95 11.98Zm-48.76 19.38c-2.76 4.12-6.57 6.08-10.86 7.08-8.1 1.88-17.49-1.18-20.31-8.95-3.19-8.77.18-16.59 9.06-19.28 5.87-1.78 12.01-2.7 18.05-3.88 4.16-.82 4.36-.94 4.3-5.13-.08-5.94-2.86-9.19-8.71-9.91-2.05-.25-4.17-.27-6.23-.05-5.59.6-8.9 3.75-9.98 9.23-.24 1.23-.25 2.8-2.15 2.08-1.6-.6-4.44.2-3.9-3.2 1.03-6.48 4.94-10.4 10.97-12.34 4.95-1.6 10.05-1.63 15.07-.52 7.01 1.55 10.64 5.84 10.83 13.03.23 8.83.12 17.66.17 26.49 0 1.17-.02 2.34.12 3.49.41 3.23 1.92 4.24 5.15 3.82.79-.1 2.33.28 2.35.55.14 1.45.85 3.17-1.18 4.12-4.98 2.31-10.49-.13-12.1-5.41-.07-.23-.23-.44-.65-1.23Zm.24-20.75c-1.77.34-2.91.53-4.04.78-5.36 1.18-10.77 2.16-16.05 3.63-3.64 1.01-5.53 3.9-5.66 7.71-.13 3.81.99 7.1 4.5 9.13 6.79 3.92 16.89.68 20.07-6.47 2.09-4.69.92-9.6 1.18-14.77Zm-38-81.64c0 7-.04 13.99.03 20.99.02 1.69-.45 2.32-2.24 2.35-7.33.12-7.33.18-7.33-7.05V36q0-3.35-3.47-3.35h-1.25c-6.17 0-6.14 0-5.72-6.12.09-1.36.58-1.98 1.95-1.94 1.75.04 3.51-.13 5.24.04 2.46.24 3.44-.53 3.29-3.16-.22-3.82.02-7.66-.09-11.49-.05-1.88.47-2.66 2.51-2.68 7.07-.07 7.07-.14 7.07 7.01 0 2.75.05 5.5-.03 8.25-.04 1.51.52 2.1 2.04 2.06 2.58-.07 5.17.06 7.74-.04 1.77-.07 2.33.66 2.29 2.36-.15 7.02.86 5.62-5.58 5.71-6.47.09-6.47.02-6.47 6.57v16.74Zm150.77 110.15c-8.92-.54-15.58-3-20.73-8.91-1.15-1.32-1.17-2.26.39-3.15.65-.37 1.26-.82 1.83-1.3 1.06-.89 1.81-.72 2.68.37 5.06 6.3 11.77 8.08 19.47 6.76 3.72-.64 6.82-2.35 7.99-6.28 1.28-4.25-.37-7.93-4.68-9.46-4.3-1.52-8.81-2.46-13.21-3.71-2-.57-3.99-1.18-5.93-1.93-10.34-3.98-9.34-17.23-2.25-22.2 8.15-5.71 22.94-4.1 29.46 3.4.96 1.1.89 1.83-.27 2.62-.55.37-1.09.8-1.52 1.3-1.26 1.48-2.16 1.12-3.39-.2-4.66-4.96-10.44-6.27-16.92-4.63-3.87.98-6.15 3.66-6.33 7.12-.19 3.68 1.49 6.33 5.52 7.66 4.02 1.33 8.2 2.19 12.3 3.27 1.37.36 2.74.71 4.08 1.18 6.72 2.35 10.03 6.47 10.04 12.44.02 6.32-3.68 11.55-10.07 13.68-3.12 1.04-6.43 1.5-8.47 1.96ZM97.42 150.32c0 4-.09 8 .03 12 .08 2.43-1.47 2.16-2.98 2.13-1.51-.04-3.25.48-3.21-2.16.1-7.83-.03-15.66.08-23.49.03-2.16-.57-2.92-2.81-2.88-7.5.13-15-.03-22.49.1-2.38.04-2.95-.82-2.95-3.06 0-2.23.56-3.1 2.95-3.05 7.41.14 14.83-.04 22.24.11 2.48.05 3.1-.8 3.06-3.15-.13-7.58.07-15.17-.11-22.74-.06-2.7 1.34-2.65 3.25-2.71 2.01-.06 3.04.3 2.99 2.7-.14 7.58.03 15.16-.11 22.74-.04 2.36.6 3.21 3.07 3.16 7.41-.15 14.83.03 22.24-.11 2.32-.04 2.8.85 2.75 2.93-.05 2.01-.17 3.24-2.78 3.18-7.16-.18-14.33-.06-21.49-.06q-3.75 0-3.74 3.62v10.75ZM397.07 33.04c2.72-4.76 6.36-7.58 11.07-9.02.08-.02.16-.05.24-.08 7.02-2.05 9.63.34 8.02 7.42-.11.5-1.17 1.18-1.71 1.11-10.85-1.33-17.74 7.82-17.89 17.33-.13 8.9-.1 17.81-.02 26.72.02 2-.49 2.94-2.64 2.75-1.65-.15-3.33-.09-4.99-.02-1.53.07-2.02-.61-2.02-2.08.03-16.81.03-33.63 0-50.44 0-1.66.71-2.11 2.25-2.17 7.09-.27 7.08-.3 7.37 6.53.02.46.15.92.32 1.94Zm-315.2-.7c2.99-4.07 6.65-6.9 11.38-8.33 7.04-2.12 9.64.25 7.97 7.37-.11.48-1.16 1.12-1.72 1.07-11.49-1.08-17.49 8.7-17.64 17.13-.16 8.83-.16 17.66-.01 26.49.04 2.52-.62 3.3-3.19 3.23-6.45-.16-6.46-.04-6.46-6.41 0-15.08.05-30.16-.05-45.23-.02-2.4.69-3.16 3.1-3.12 6.47.1 6.47 0 6.53 6.37 0 .48.06.95.09 1.43Zm185.18 19.75c0-8.32.05-16.64-.04-24.95-.02-1.96.57-2.74 2.56-2.57 1.49.13 3 .12 4.49 0 2.01-.15 2.55.75 2.54 2.65-.05 16.47-.05 32.94 0 49.41 0 1.88-.45 2.65-2.49 2.67-7.06.06-7.06.13-7.06-6.99V52.1Zm-47.28-.1c0 8.15-.07 16.3.05 24.45.03 2.2-.66 2.86-2.84 2.84-6.77-.05-6.77.04-6.77-6.81 0-14.89.05-29.78-.05-44.67-.02-2.46.57-3.35 3.18-3.28 6.44.16 6.45.03 6.45 6.5v20.96Zm89.77 69.56c.43-.64.86-1.29 1.3-1.92 3.57-5.07 8.54-7.23 14.64-6.87 3.45.21 1.79 2.93 2.05 4.59.31 1.95-1.11 1.72-2.45 1.65-7.78-.46-14.1 4.44-15.62 12.17-.41 2.11-.57 4.29-.59 6.44-.07 8.07-.13 16.15.03 24.21.06 2.72-1.38 2.65-3.27 2.67-1.87.02-3.1-.08-3.08-2.59.11-15.14.1-30.29 0-45.43-.02-2.47 1.15-2.66 3.07-2.62 1.88.04 3.57-.08 3.26 2.67-.18 1.6-.03 3.24-.03 4.86.23.06.46.12.68.17ZM214.96 13.01c-3.69-.01-6.44-2.81-6.42-6.52.02-3.69 2.83-6.5 6.47-6.49 3.57.01 6.48 2.96 6.48 6.55 0 3.62-2.89 6.47-6.54 6.46Zm63.34-6.44c-.02 3.62-2.92 6.47-6.55 6.44-3.66-.03-6.47-2.87-6.44-6.53.03-3.63 2.93-6.51 6.52-6.48 3.58.03 6.48 2.98 6.47 6.57Z"></path></svg>